<svg xmlns="http://www.w3.org/2000/svg" width="800" height="300"><rect width="800" height="300" x="0" y="0" fill="#FFFFFF" id="background"/><g id="viz"><g transform="translate(0,0)"><g transform="translate(10,20)"><g><path fill="#9467bd" d="M0,223.78288467675833L2.8242366525802036,223.73583699402363C5.648473305160407,223.6887893112889,11.296946610320814,223.59469394581944,16.94541991548122,223.6935337676722C22.59389322064163,223.792373589525,28.242366525802037,224.0841485987,33.89083983096244,223.44209538534722C39.53931313612285,222.80004217199448,45.18778644128326,221.22416073611387,50.84399738110827,219.08269403924587C56.50020832093327,216.9412273423778,62.164156895422884,214.23417538452222,67.8203678352479,211.06331865767777C73.47657877507291,207.89246193083332,79.12505208023332,204.257800435,84.77352538539373,204.29416788986111C90.42199869055413,204.33053534472222,96.07047199571456,208.0379317502778,101.71894530087496,211.03243941902778C107.36741860603536,214.02694708777778,113.01589191119577,216.30856601972224,118.67210285102077,217.36450645631945C124.3283137908458,218.42044689291666,129.9922623653354,218.25070883416666,135.6484733051604,218.19078740617223C141.30468424498542,218.13086597817778,146.95315755014585,218.1807611809389,152.60163085530624,216.5281466545736C158.25010416046663,214.8755321282083,163.89857746562703,211.52040787271665,169.54705077078745,198.89059366851666C175.19552407594787,186.26077946431667,180.84399738110827,164.35627531140833,186.5002083209333,153.9469802967875C192.1564192607583,143.53768528216668,197.8203678352479,144.62359940583335,203.4765787750729,144.3363760904861C209.13278971489794,144.04915277513888,214.78126302005833,142.38879202077777,220.42973632521876,138.4950823562722C226.07820963037918,134.60137269176667,231.72668293553957,128.47431411711668,237.37515624069997,123.44726424999583C243.02362954586036,118.42021438287499,248.67210285102078,114.49317322328334,254.3279913894014,112.43981736203888C259.9838799277821,110.38646150079443,265.647183699383,110.2067909378972,271.3030722377637,107.97897151690553C276.9589607761443,105.75115209591387,282.6074340813047,101.47518381682777,288.2559073864651,114.40610916048747C293.9043806916255,127.33703450414721,299.5528539967859,157.47485347055274,305.2013273019463,172.25817385954306C310.8498006071067,187.04149424853335,316.49827391226717,186.47031606010833,322.15448485209214,187.05470536609585C327.81069579191717,187.63909467208336,333.4746443664068,189.37905147248338,339.13117770767616,190.34667028481667C344.78771104894554,191.31428909715,350.43682915699463,191.50956992141664,356.08562486359943,194.07858389674027C361.7344205702041,196.64759787206387,367.3828938753646,201.59034499844446,373.03136718052497,205.5345585686389C378.6798404856854,209.4787721388333,384.3283137908458,212.42445215284167,389.9845247306708,215.10928336411527C395.6407356704958,217.79411457538887,401.3046842449855,220.21809698392778,406.96089518481045,221.42701806986528C412.6171061246355,222.6359391558028,418.2655794297959,222.62979891913892,423.91405273495633,224.23924361516114C429.56252604011667,225.84868831118334,435.2109993452771,229.07371793989168,440.8594726504375,232.37895473934324C446.5079459555979,235.68419153879472,452.15641926075824,239.06963550898945,457.8126302005833,241.3790496922543C463.4688411404083,243.68846387551915,469.1327897148979,244.92184827185417,474.78900065472294,247.02452088224155C480.44521159454797,249.1271934926289,486.0936848997083,252.09915431706864,491.7421582048687,253.52704748854126C497.39063151002915,254.9549406600139,503.03910481518955,254.83876617851945,508.68757812035,255.41880504764598C514.3360514255104,255.99884391677247,519.9845247306707,257.27509613652,525.6407356704957,258.1237015745811C531.2969466103208,258.9723070126422,536.9608951848104,259.39326566901696,542.6171061246354,259.62623573071124C548.2733170644605,259.8592057924056,553.9217903696208,259.9041872594194,559.5702636747812,259.92846965598324C565.2187369799417,259.95275205254694,570.867210285102,259.9563353786605,576.5153611888181,259.96287768566015C582.1635120925342,259.96941999265977,587.8113405948058,259.9789212805453,593.4672291331865,259.9856014964162C599.1231176715671,259.99228171228725,604.7870662460567,259.99614085614365,610.443599587326,259.9980704280718C616.1001329285955,260,621.7492510366446,260,627.3980467432494,260C633.0468424498541,260,638.6953157550146,260,644.343789060175,260C649.9922623653355,260,655.6407356704958,260,661.2969466103208,260C666.9531575501458,260,672.6171061246354,260,678.2733170644603,260C683.9295280042853,260,689.5780013094458,260,695.2264746146062,260C700.8749479197667,260,706.5234212249271,260,712.1718945300876,260C717.8203678352479,260,723.4688411404082,260,729.1250520802333,260C734.7812630200583,260,740.4452115945479,260,746.1014225343729,260C751.757633474198,260,757.4061067793583,260,763.0545800845188,260C768.7030533896792,260,774.3515266948397,260,777.1757633474199,260L780,260L780,260L777.1757633474198,260C774.3515266948397,260,768.7030533896792,260,763.0545800845188,260C757.4061067793583,260,751.757633474198,260,746.1014225343729,260C740.4452115945479,260,734.7812630200583,260,729.1250520802332,260C723.4688411404082,260,717.8203678352479,260,712.1718945300876,260C706.5234212249271,260,700.8749479197667,260,695.2264746146062,260C689.5780013094458,260,683.9295280042853,260,678.2733170644603,260C672.6171061246354,260,666.9531575501458,260,661.2969466103208,260C655.6407356704958,260,649.9922623653355,260,644.343789060175,260C638.6953157550146,260,633.0468424498541,260,627.3980467432494,260C621.7492510366446,260,616.1001329285955,260,610.443599587326,260C604.7870662460567,260,599.1231176715671,260,593.4672291331865,260C587.8113405948058,260,582.1635120925342,260,576.5153611888181,260C570.867210285102,260,565.2187369799417,260,559.5702636747812,260C553.9217903696208,260,548.2733170644605,260,542.6171061246355,259.81647224214737C536.9608951848104,259.63294448429474,531.2969466103208,259.2658889685894,525.6407356704957,258.65751263163526C519.9845247306707,258.0491362946811,514.3360514255104,257.1994391364781,508.6875781203499,257.0998089968737C503.03910481518955,257.0001788572694,497.39063151002915,257.6506157362639,491.74215820486876,256.8987160568468C486.0936848997083,256.14681637742973,480.44521159454797,253.99258013960107,474.78900065472294,253.04198414793166C469.1327897148979,252.09138815626224,463.4688411404083,252.34443241075192,457.81263020058327,252.16223035884957C452.15641926075824,251.98002830694722,446.5079459555979,251.36257994865278,440.8594726504375,250.65531967137224C435.2109993452771,249.9480593940917,429.56252604011667,249.150987197825,423.91405273495633,249.2304270998708C418.2655794297959,249.30986700191667,412.6171061246355,250.26581900227498,406.96089518481045,250.93087667089307C401.3046842449855,251.5959343395111,395.6407356704958,251.97009767638886,389.9845247306708,252.2150635857264C384.3283137908458,252.46002949506388,378.6798404856854,252.57579797686108,373.03136718052497,252.59614972675C367.3828938753646,252.6165014766389,361.7344205702041,252.54143649461943,356.08562486359943,252.54737291047635C350.43682915699463,252.55330932633333,344.78771104894554,252.64024714006666,339.13117770767616,252.78177463349724C333.4746443664068,252.92330212692778,327.81069579191717,253.1194193000556,322.15448485209214,253.28175443194309C316.49827391226717,253.44408956383054,310.8498006071067,253.5726426544778,305.2013273019463,240.72783394972362C299.5528539967859,227.88302524496945,293.9043806916255,202.06485474481386,288.2559073864651,191.29868330812636C282.6074340813047,180.53251187143886,276.9589607761443,184.81833949821942,271.3030722377637,187.3037184212666C265.647183699383,189.78909734431386,259.9838799277821,190.47402756362774,254.3279913894014,191.43244494853056C248.67210285102078,192.39086233343332,243.02362954586036,193.62276688392498,237.37515624069997,195.74483688880971C231.72668293553957,197.86690689369445,226.07820963037918,200.8791423529722,220.42973632521876,203.03359342284725C214.78126302005833,205.18804449272224,209.13278971489794,206.48471117319446,203.47657877507297,206.83587579743053C197.8203678352479,207.18704042166667,192.1564192607583,206.5927029896667,186.5002083209333,215.0494254541486C180.84399738110827,223.50614791863055,175.19552407594787,241.01393027959446,169.54705077078745,249.84753601998332C163.89857746562703,258.6811417603722,158.25010416046663,258.84057088018614,152.60163085530624,259.0869521067597C146.95315755014585,259.3333333333333,141.30468424498542,259.6666666666667,135.6484733051604,259.8333333333333C129.9922623653354,260,124.3283137908458,260,118.67210285102078,260C113.01589191119577,260,107.36741860603536,260,101.71894530087495,260C96.07047199571456,260,90.42199869055413,260,84.77352538539373,260C79.12505208023332,260,73.47657877507291,260,67.8203678352479,260C62.164156895422884,260,56.50020832093327,260,50.84399738110826,260C45.18778644128326,260,39.53931313612285,260,33.89083983096244,260C28.242366525802037,260,22.59389322064163,260,16.94541991548122,260C11.296946610320814,260,5.648473305160407,260,2.8242366525802036,260L0,260Z"><title>Tape</title></path><path fill="#1f77b4" d="M0,260L2.8242366525802036,260C5.648473305160407,260,11.296946610320814,260,16.94541991548122,260C22.59389322064163,260,28.242366525802037,260,33.89083983096244,260C39.53931313612285,260,45.18778644128326,260,50.84399738110827,260C56.50020832093327,260,62.164156895422884,260,67.8203678352479,260C73.47657877507291,260,79.12505208023332,260,84.77352538539373,260C90.42199869055413,260,96.07047199571456,260,101.71894530087496,260C107.36741860603536,260,113.01589191119577,260,118.67210285102077,260C124.3283137908458,260,129.9922623653354,260,135.6484733051604,260C141.30468424498542,260,146.95315755014585,260,152.60163085530624,259.92028544009304C158.25010416046663,259.84057088018614,163.89857746562703,259.6811417603722,169.54705077078745,259.22220450056665C175.19552407594787,258.7632672407611,180.84399738110827,258.00482184096387,186.5002083209333,256.41358532235694C192.1564192607583,254.82234880375003,197.8203678352479,252.39832116633337,203.4765787750729,248.93995119211112C209.13278971489794,245.4815812178889,214.78126302005833,240.98886890686114,220.42973632521876,231.9689318911111C226.07820963037918,222.9489948753611,231.72668293553957,209.4018331548889,237.37515624069997,202.01230001940692C243.02362954586036,194.62276688392498,248.67210285102078,193.39086233343332,254.3279913894014,192.43244494853056C259.9838799277821,191.47402756362774,265.647183699383,190.78909734431386,271.3030722377637,188.30371842126667C276.9589607761443,185.81833949821942,282.6074340813047,181.53251187143886,288.2559073864651,166.1304989241083C293.9043806916255,150.72848597677773,299.5528539967859,124.21028770889718,305.2013273019463,107.81252325331802C310.8498006071067,91.41475879773888,316.49827391226717,85.13742815446112,322.15448485209214,79.59504510627501C327.81069579191717,74.05266205808891,333.4746443664068,69.24522660499446,339.13117770767616,61.34665436732362C344.78771104894554,53.44808212965278,350.43682915699463,42.45837310740554,356.08562486359943,37.235234591879156C361.7344205702041,32.012096076352755,367.3828938753646,32.555528067547215,373.03136718052497,33.269395479759716C378.6798404856854,33.983262891972224,384.3283137908458,34.86756572520277,389.9845247306708,36.99099406324028C395.6407356704958,39.11442240127778,401.3046842449855,42.47697624412223,406.96089518481045,40.522646953879175C412.6171061246355,38.56831766363612,418.2655794297959,31.297105240305566,423.91405273495633,26.08031245061946C429.56252604011667,20.863519660933353,435.2109993452771,17.701146504891693,440.8594726504375,18.13375498427377C446.5079459555979,18.566363463655847,452.15641926075824,22.59395357846166,457.8126302005833,27.175326771573747C463.4688411404083,31.756699964685833,469.1327897148979,36.89185623610418,474.78900065472294,42.917559255610996C480.44521159454797,48.9432622751178,486.0936848997083,55.85951204271307,491.7421582048687,61.61574030589819C497.39063151002915,67.37196856908332,503.03910481518955,71.96817532785833,508.68757812035,73.83861258276137C514.3360514255104,75.70904983766444,519.9845247306707,74.85371758869553,525.6407356704957,75.54509330908621C531.2969466103208,76.23646902947691,536.9608951848104,78.47455271922719,542.6171061246354,81.71579653540914C548.2733170644605,84.95704035159109,553.9217903696208,89.2014442942047,559.5702636747812,94.53256782065459C565.2187369799417,99.86369134710445,570.867210285102,106.28153445739055,576.5153611888181,114.39004096851C582.1635120925342,122.49854747962944,587.8113405948058,132.2977173915822,593.4672291331865,139.331788431864C599.1231176715671,146.36585947214581,604.7870662460567,150.63483164075666,610.443599587326,154.7711650598961C616.1001329285955,158.90749847903555,621.7492510366446,162.91119314870363,627.3980467432494,165.11741694010044C633.0468424498541,167.32364073149722,638.6953157550146,167.7323936446228,644.343789060175,174.70548144120872C649.9922623653355,181.67856923779473,655.6407356704958,195.21599191784114,661.2969466103208,201.8723413807946C666.9531575501458,208.52869084374808,672.6171061246354,208.30396708960862,678.2733170644603,211.99952115701527C683.9295280042853,215.6950752244219,689.5780013094458,223.31090711337472,695.2264746146062,227.6018359392754C700.8749479197667,231.8927647651761,706.5234212249271,232.85879052802474,712.1718945300876,233.9666099675643C717.8203678352479,235.07442940710385,723.4688411404082,236.32404252333444,729.1250520802333,237.09571260184637C734.7812630200583,237.86738268035833,740.4452115945479,238.16110972115166,746.1014225343729,238.91421071677016C751.757633474198,239.6673117123886,757.4061067793583,240.8797866628322,763.0545800845188,241.56235510417415C768.7030533896792,242.24492354551612,774.3515266948397,242.3975854777564,777.1757633474199,242.47391644387653L780,242.55024740999667L780,249.214098988255L777.1757633474198,249.31281615870807C774.3515266948397,249.4115333291611,768.7030533896792,249.60896767006724,763.0545800845188,249.81126407606902C757.4061067793583,250.01356048207083,751.757633474198,250.22071895316833,746.1014225343729,250.35954289786858C740.4452115945479,250.49836684256888,734.7812630200583,250.56885626087194,729.1250520802332,250.62024201464192C723.4688411404082,250.67162776841192,717.8203678352479,250.70390985764888,712.1718945300876,250.89045872075198C706.5234212249271,251.077007583855,700.8749479197667,251.41782322082418,695.2264746146062,248.5573324450053C689.5780013094458,245.69684166918637,683.9295280042853,239.63504448057947,678.2733170644603,237.4740639350575C672.6171061246354,235.31308338953556,666.9531575501458,237.0529194870986,661.2969466103208,232.52085358061777C655.6407356704958,227.98878767413694,649.9922623653355,217.18481976361224,644.343789060175,212.38993638629373C638.6953157550146,207.59505300897527,633.0468424498541,208.80925416486306,627.3980467432494,209.53401298573684C621.7492510366446,210.25877180661055,616.1001329285955,210.4940882924703,610.443599587326,210.91744036583043C604.7870662460567,211.34079243919055,599.1231176715671,211.9521801000511,593.4672291331865,212.2433489454686C587.8113405948058,212.5345177908861,582.1635120925342,212.50546782086056,576.5153611888181,214.14315274095114C570.867210285102,215.7808376610417,565.2187369799417,219.08525747124835,559.5702636747812,222.03913058067766C553.9217903696208,224.99300369010697,548.2733170644605,227.5963300987589,542.6171061246355,230.9127511229847C536.9608951848104,234.22917214721053,531.2969466103208,238.25868778701025,525.6407356704957,240.98920689634596C519.9845247306707,243.71972600568165,514.3360514255104,245.15124858455331,508.6875781203499,246.18658894181553C503.03910481518955,247.22192929907774,497.39063151002915,247.86108743473054,491.74215820486876,247.62316435219122C486.0936848997083,247.38524126965194,480.44521159454797,246.27023696892056,474.78900065472294,245.09604262038735C469.1327897148979,243.92184827185417,463.4688411404083,242.68846387551915,457.81263020058327,240.37904969225428C452.15641926075824,238.06963550898945,446.5079459555979,234.68419153879472,440.8594726504375,231.3789547393432C435.2109993452771,228.07371793989168,429.56252604011667,224.84868831118334,423.91405273495633,223.23924361516114C418.2655794297959,221.62979891913892,412.6171061246355,221.6359391558028,406.96089518481045,220.42701806986528C401.3046842449855,219.21809698392778,395.6407356704958,216.79411457538887,389.9845247306708,214.10928336411527C384.3283137908458,211.42445215284167,378.6798404856854,208.4787721388333,373.03136718052497,204.5345585686389C367.3828938753646,200.59034499844446,361.7344205702041,195.64759787206387,356.08562486359943,193.07858389674027C350.43682915699463,190.50956992141664,344.78771104894554,190.31428909715,339.13117770767616,189.34667028481667C333.4746443664068,188.37905147248338,327.81069579191717,186.63909467208336,322.15448485209214,186.05470536609585C316.49827391226717,185.47031606010833,310.8498006071067,186.04149424853335,305.2013273019463,196.97754854485C299.5528539967859,207.91360284116664,293.9043806916255,229.214533245375,288.2559073864651,239.42943182879864C282.6074340813047,249.64433041222222,276.9589607761443,248.7731971748611,271.3030722377637,247.24007688793054C265.647183699383,245.706956601,259.9838799277821,243.5118492645,254.3279913894014,241.31272758037497C248.67210285102078,239.11360589624996,243.02362954586036,236.9104698645,237.37515624069997,240.02434620983334C231.72668293553957,243.13822255516666,226.07820963037918,251.56911127758335,220.42973632521876,255.78455563879166C214.78126302005833,260,209.13278971489794,260,203.47657877507297,260C197.8203678352479,260,192.1564192607583,260,186.5002083209333,260C180.84399738110827,260,175.19552407594787,260,169.54705077078745,260C163.89857746562703,260,158.25010416046663,260,152.60163085530624,260C146.95315755014585,260,141.30468424498542,260,135.6484733051604,260C129.9922623653354,260,124.3283137908458,260,118.67210285102078,260C113.01589191119577,260,107.36741860603536,260,101.71894530087495,260C96.07047199571456,260,90.42199869055413,260,84.77352538539373,260C79.12505208023332,260,73.47657877507291,260,67.8203678352479,260C62.164156895422884,260,56.50020832093327,260,50.84399738110826,260C45.18778644128326,260,39.53931313612285,260,33.89083983096244,260C28.242366525802037,260,22.59389322064163,260,16.94541991548122,260C11.296946610320814,260,5.648473305160407,260,2.8242366525802036,260L0,260Z"><title>Disc</title></path><path fill="#ff7f0e" d="M0,260L2.8242366525802036,260C5.648473305160407,260,11.296946610320814,260,16.94541991548122,260C22.59389322064163,260,28.242366525802037,260,33.89083983096244,260C39.53931313612285,260,45.18778644128326,260,50.84399738110827,260C56.50020832093327,260,62.164156895422884,260,67.8203678352479,260C73.47657877507291,260,79.12505208023332,260,84.77352538539373,260C90.42199869055413,260,96.07047199571456,260,101.71894530087496,260C107.36741860603536,260,113.01589191119577,260,118.67210285102077,260C124.3283137908458,260,129.9922623653354,260,135.6484733051604,259.8333333333333C141.30468424498542,259.6666666666667,146.95315755014585,259.3333333333333,152.60163085530624,259.3333333333333C158.25010416046663,259.3333333333333,163.89857746562703,259.6666666666667,169.54705077078745,259.8333333333333C175.19552407594787,260,180.84399738110827,260,186.5002083209333,260C192.1564192607583,260,197.8203678352479,260,203.4765787750729,260C209.13278971489794,260,214.78126302005833,260,220.42973632521876,260C226.07820963037918,260,231.72668293553957,260,237.37515624069997,260C243.02362954586036,260,248.67210285102078,260,254.3279913894014,260C259.9838799277821,260,265.647183699383,260,271.3030722377637,260C276.9589607761443,260,282.6074340813047,260,288.2559073864651,260C293.9043806916255,260,299.5528539967859,260,305.2013273019463,260C310.8498006071067,260,316.49827391226717,260,322.15448485209214,260C327.81069579191717,260,333.4746443664068,260,339.13117770767616,260C344.78771104894554,260,350.43682915699463,260,356.08562486359943,260C361.7344205702041,260,367.3828938753646,260,373.03136718052497,260C378.6798404856854,260,384.3283137908458,260,389.9845247306708,260C395.6407356704958,260,401.3046842449855,260,406.96089518481045,260C412.6171061246355,260,418.2655794297959,260,423.91405273495633,260C429.56252604011667,260,435.2109993452771,260,440.8594726504375,260C446.5079459555979,260,452.15641926075824,260,457.8126302005833,260C463.4688411404083,260,469.1327897148979,260,474.78900065472294,260C480.44521159454797,260,486.0936848997083,260,491.7421582048687,260C497.39063151002915,260,503.03910481518955,260,508.68757812035,258.8810268988557C514.3360514255104,257.76205379771136,519.9845247306707,255.52410759542275,525.6407356704957,250.7240503466579C531.2969466103208,245.92399309789303,536.9608951848104,238.56182480265193,542.6171061246354,233.57907745070543C548.2733170644605,228.5963300987589,553.9217903696208,225.99300369010697,559.5702636747812,223.03913058067766C565.2187369799417,220.08525747124835,570.867210285102,216.7808376610417,576.5153611888181,215.1431527409511C582.1635120925342,213.50546782086056,587.8113405948058,213.5345177908861,593.4672291331865,213.2433489454686C599.1231176715671,212.9521801000511,604.7870662460567,212.34079243919055,610.443599587326,211.91744036583043C616.1001329285955,211.4940882924703,621.7492510366446,211.25877180661055,627.3980467432494,210.5340129857368C633.0468424498541,209.80925416486306,638.6953157550146,208.59505300897527,644.343789060175,201.98586478657862C649.9922623653355,195.37667656418193,655.6407356704958,183.3725012752764,661.2969466103208,177.53567470496918C666.9531575501458,171.69884813466194,672.6171061246354,172.02937028295307,678.2733170644603,173.08089836045556C683.9295280042853,174.13242643795806,689.5780013094458,175.90496044467193,695.2264746146062,181.4823025153271C700.8749479197667,187.05964458598223,706.5234212249271,196.44179472057863,712.1718945300876,202.70644443238197C717.8203678352479,208.9710941441853,723.4688411404082,212.11824343319554,729.1250520802333,214.7494568929478C734.7812630200583,217.3806703527,740.4452115945479,219.49594798319416,746.1014225343729,221.89395524603583C751.757633474198,224.2919625088775,757.4061067793583,226.97269940406667,763.0545800845188,228.75367233766585C768.7030533896792,230.53464527126502,774.3515266948397,231.4158542432742,777.1757633474199,231.85645872927876L780,232.29706321528334L780,241.55024740999667L777.1757633474198,241.47391644387653C774.3515266948397,241.3975854777564,768.7030533896792,241.24492354551612,763.0545800845188,240.56235510417415C757.4061067793583,239.8797866628322,751.757633474198,238.6673117123886,746.1014225343729,237.91421071677016C740.4452115945479,237.16110972115166,734.7812630200583,236.86738268035833,729.1250520802332,236.09571260184637C723.4688411404082,235.32404252333444,717.8203678352479,234.07442940710385,712.1718945300876,229.23663777084207C706.5234212249271,224.39884613458025,700.8749479197667,215.97287597828722,695.2264746146062,211.68194715238653C689.5780013094458,207.3910183264858,683.9295280042853,207.23513083097748,678.2733170644603,207.26954896029304C672.6171061246354,207.30396708960862,666.9531575501458,207.52869084374808,661.2969466103208,213.53381488605666C655.6407356704958,219.53893892836527,649.9922623653355,231.32446325884302,644.343789060175,237.57113060926886C638.6953157550146,243.81779795969473,633.0468424498541,244.52560833006862,627.3980467432494,245.0188305212132C621.7492510366446,245.5120527123578,616.1001329285955,245.79068672427306,610.443599587326,246.27086406037347C604.7870662460567,246.75104139647388,599.1231176715671,247.43276205675943,593.4672291331865,247.3278610594297C587.8113405948058,247.22296006210001,582.1635120925342,246.331437407155,576.5153611888181,245.98863656338722C570.867210285102,245.64583571961944,565.2187369799417,245.85175668702888,559.5702636747812,245.6630171581415C553.9217903696208,245.47427762925417,548.2733170644605,244.89087760406997,542.6171061246355,246.5440321740068C536.9608951848104,248.19718674394358,531.2969466103208,252.08689590900136,525.6407356704957,254.70231631252037C519.9845247306707,257.3177367160394,514.3360514255104,258.6588683580197,508.6875781203499,259.32943417900987C503.03910481518955,260,497.39063151002915,260,491.74215820486876,260C486.0936848997083,260,480.44521159454797,260,474.78900065472294,260C469.1327897148979,260,463.4688411404083,260,457.81263020058327,260C452.15641926075824,260,446.5079459555979,260,440.8594726504375,260C435.2109993452771,260,429.56252604011667,260,423.91405273495633,260C418.2655794297959,260,412.6171061246355,260,406.96089518481045,260C401.3046842449855,260,395.6407356704958,260,389.9845247306708,260C384.3283137908458,260,378.6798404856854,260,373.03136718052497,260C367.3828938753646,260,361.7344205702041,260,356.08562486359943,260C350.43682915699463,260,344.78771104894554,260,339.13117770767616,260C333.4746443664068,260,327.81069579191717,260,322.15448485209214,260C316.49827391226717,260,310.8498006071067,260,305.2013273019463,260C299.5528539967859,260,293.9043806916255,260,288.2559073864651,260C282.6074340813047,260,276.9589607761443,260,271.3030722377637,260C265.647183699383,260,259.9838799277821,260,254.3279913894014,260C248.67210285102078,260,243.02362954586036,260,237.37515624069997,260C231.72668293553957,260,226.07820963037918,260,220.42973632521876,260C214.78126302005833,260,209.13278971489794,260,203.47657877507297,260C197.8203678352479,260,192.1564192607583,260,186.5002083209333,260C180.84399738110827,260,175.19552407594787,260,169.54705077078745,259.8333333333333C163.89857746562703,259.6666666666667,158.25010416046663,259.3333333333333,152.60163085530624,259.3333333333333C146.95315755014585,259.3333333333333,141.30468424498542,259.6666666666667,135.6484733051604,259.8333333333333C129.9922623653354,260,124.3283137908458,260,118.67210285102078,260C113.01589191119577,260,107.36741860603536,260,101.71894530087495,260C96.07047199571456,260,90.42199869055413,260,84.77352538539373,260C79.12505208023332,260,73.47657877507291,260,67.8203678352479,260C62.164156895422884,260,56.50020832093327,260,50.84399738110826,260C45.18778644128326,260,39.53931313612285,260,33.89083983096244,260C28.242366525802037,260,22.59389322064163,260,16.94541991548122,260C11.296946610320814,260,5.648473305160407,260,2.8242366525802036,260L0,260Z"><title>Download</title></path><path fill="#2ca02c" d="M0,260L2.8242366525802036,260C5.648473305160407,260,11.296946610320814,260,16.94541991548122,260C22.59389322064163,260,28.242366525802037,260,33.89083983096244,260C39.53931313612285,260,45.18778644128326,260,50.84399738110827,260C56.50020832093327,260,62.164156895422884,260,67.8203678352479,260C73.47657877507291,260,79.12505208023332,260,84.77352538539373,260C90.42199869055413,260,96.07047199571456,260,101.71894530087496,260C107.36741860603536,260,113.01589191119577,260,118.67210285102077,260C124.3283137908458,260,129.9922623653354,260,135.6484733051604,259.8333333333333C141.30468424498542,259.6666666666667,146.95315755014585,259.3333333333333,152.60163085530624,259.3333333333333C158.25010416046663,259.3333333333333,163.89857746562703,259.6666666666667,169.54705077078745,259.8333333333333C175.19552407594787,260,180.84399738110827,260,186.5002083209333,260C192.1564192607583,260,197.8203678352479,260,203.4765787750729,260C209.13278971489794,260,214.78126302005833,260,220.42973632521876,260C226.07820963037918,260,231.72668293553957,260,237.37515624069997,260C243.02362954586036,260,248.67210285102078,260,254.3279913894014,259.5704114791667C259.9838799277821,259.14082295833333,265.647183699383,258.28164591666666,271.3030722377637,257.67312118419443C276.9589607761443,257.06459645172225,282.6074340813047,256.7067240284444,288.2559073864651,256.25317850679863C293.9043806916255,255.79963298515278,299.5528539967859,255.25041436513888,305.2013273019463,254.91152850980833C310.8498006071067,254.5726426544778,316.49827391226717,254.44408956383054,322.15448485209214,254.28175443194309C327.81069579191717,254.1194193000556,333.4746443664068,253.92330212692778,339.13117770767616,253.78177463349724C344.78771104894554,253.64024714006666,350.43682915699463,253.55330932633333,356.08562486359943,253.54737291047638C361.7344205702041,253.54143649461943,367.3828938753646,253.6165014766389,373.03136718052497,253.59614972674999C378.6798404856854,253.57579797686108,384.3283137908458,253.46002949506388,389.9845247306708,253.21506358572637C395.6407356704958,252.97009767638886,401.3046842449855,252.5959343395111,406.96089518481045,251.930876670893C412.6171061246355,251.26581900227498,418.2655794297959,250.30986700191667,423.91405273495633,250.23042709987087C429.56252604011667,250.150987197825,435.2109993452771,250.9480593940917,440.8594726504375,251.6553196713722C446.5079459555979,252.36257994865278,452.15641926075824,252.98002830694722,457.8126302005833,253.16223035884957C463.4688411404083,253.34443241075192,469.1327897148979,253.09138815626224,474.78900065472294,252.40851630711919C480.44521159454797,251.72564445797607,486.0936848997083,250.6129450141797,491.7421582048687,249.73701622445512C497.39063151002915,248.86108743473054,503.03910481518955,248.22192929907774,508.68757812035,247.18658894181556C514.3360514255104,246.15124858455331,519.9845247306707,244.71972600568165,525.6407356704957,244.34051040825844C531.2969466103208,243.96129481083526,536.9608951848104,244.63438619486055,542.6171061246354,245.26263189946528C548.2733170644605,245.89087760406997,553.9217903696208,246.47427762925417,559.5702636747812,246.6630171581415C565.2187369799417,246.85175668702888,570.867210285102,246.64583571961944,576.5153611888181,247.84437480552614C582.1635120925342,249.0429138914328,587.8113405948058,251.64591303065558,593.4672291331865,251.75081402798526C599.1231176715671,251.85571502531502,604.7870662460567,249.46251788075165,610.443599587326,249.27043036958182C616.1001329285955,249.07834285841196,621.7492510366446,251.08736498063558,627.3980467432494,252.10207827267152C633.0468424498541,253.11679156470754,638.6953157550146,253.13719602655587,644.343789060175,253.16309004288402C649.9922623653355,253.18898405921223,655.6407356704958,253.2203676300203,661.2969466103208,253.17191909426776C666.9531575501458,253.12347055851527,672.6171061246354,252.9951899162022,678.2733170644603,252.91300452569638C683.9295280042853,252.83081913519052,689.5780013094458,252.79472899649193,695.2264746146062,253.43342141296205C700.8749479197667,254.0721138294322,706.5234212249271,255.3855888010711,712.1718945300876,256.0586900256257C717.8203678352479,256.73179125018027,723.4688411404082,256.7645187276505,729.1250520802333,256.7957338936293C734.7812630200583,256.82694905960807,740.4452115945479,256.85665191409527,746.1014225343729,256.80521718500285C751.757633474198,256.7537824559103,757.4061067793583,256.6212101432381,763.0545800845188,256.5865290776739C768.7030533896792,256.5518480121097,774.3515266948397,256.6150581936536,777.1757633474199,256.6466632844256L780,256.6782683751975L780,260L777.1757633474198,260C774.3515266948397,260,768.7030533896792,260,763.0545800845188,260C757.4061067793583,260,751.757633474198,260,746.1014225343729,260C740.4452115945479,260,734.7812630200583,260,729.1250520802332,260C723.4688411404082,260,717.8203678352479,260,712.1718945300876,259.3471422412529C706.5234212249271,258.6942844825058,700.8749479197667,257.38856896501164,695.2264746146062,256.7984213696498C689.5780013094458,256.20827377428805,683.9295280042853,256.3336941010586,678.2733170644603,256.4872125583929C672.6171061246354,256.6407310157272,666.9531575501458,256.82234760362525,661.2969466103208,256.9913650480599C655.6407356704958,257.1603824924944,649.9922623653355,257.3168007934656,644.343789060175,257.4564120770125C638.6953157550146,257.59602336055946,633.0468424498541,257.71882762668224,627.3980467432494,256.88572945502125C621.7492510366446,256.0526312833603,616.1001329285955,254.26363067391557,610.443599587326,254.16031524544624C604.7870662460567,254.05699981697694,599.1231176715671,255.63936956948305,593.4672291331865,255.725353631159C587.8113405948058,255.811337692835,582.1635120925342,254.40093606368086,576.5153611888181,253.7496538028729C570.867210285102,253.09837154206502,565.2187369799417,253.20620864960335,559.5702636747812,253.37786933240443C553.9217903696208,253.54953001520553,548.2733170644605,253.78501427326944,542.6171061246355,253.61370021260151C536.9608951848104,253.44238615193362,531.2969466103208,252.8642737725339,525.6407356704957,252.8146226334825C519.9845247306707,252.76497149443108,514.3360514255104,253.24378159572802,508.6875781203499,253.54127388712377C503.03910481518955,253.83876617851945,497.39063151002915,253.9549406600139,491.74215820486876,254.68124924410282C486.0936848997083,255.4075578281917,480.44521159454797,256.74400051487504,474.78900065472294,257.42072779674726C469.1327897148979,258.0974550786195,463.4688411404083,258.1144669556806,457.81263020058327,258.1023140924111C452.15641926075824,258.09016122914164,446.5079459555979,258.0488436255417,440.8594726504375,258.0245315452889C435.2109993452771,258.0002194650361,429.56252604011667,257.99291290813056,423.91405273495633,257.9601667271486C418.2655794297959,257.9274205461666,412.6171061246355,257.8692347411083,406.96089518481045,257.7902880746986C401.3046842449855,257.7113414082889,395.6407356704958,257.6116338805278,389.9845247306708,257.59231805118475C384.3283137908458,257.5730022218417,378.6798404856854,257.6340780909167,373.03136718052497,257.6796329458611C367.3828938753646,257.72518780080554,361.7344205702041,257.75522164161947,356.08562486359943,257.7752768795458C350.43682915699463,257.79533211747224,344.78771104894554,257.8054087525111,339.13117770767616,257.74498610758053C333.4746443664068,257.68456346265,327.81069579191717,257.55364153775,322.15448485209214,257.43485247437366C316.49827391226717,257.31606341099723,310.8498006071067,257.20940720914444,305.2013273019463,257.6389539403361C299.5528539967859,258.0685006715278,293.9043806916255,259.0342503357639,288.2559073864651,259.51712516788194C282.6074340813047,260,276.9589607761443,260,271.3030722377637,260C265.647183699383,260,259.9838799277821,260,254.3279913894014,260C248.67210285102078,260,243.02362954586036,260,237.37515624069997,260C231.72668293553957,260,226.07820963037918,260,220.42973632521876,260C214.78126302005833,260,209.13278971489794,260,203.47657877507297,260C197.8203678352479,260,192.1564192607583,260,186.5002083209333,260C180.84399738110827,260,175.19552407594787,260,169.54705077078745,259.8333333333333C163.89857746562703,259.6666666666667,158.25010416046663,259.3333333333333,152.60163085530624,259.3333333333333C146.95315755014585,259.3333333333333,141.30468424498542,259.6666666666667,135.6484733051604,259.8333333333333C129.9922623653354,260,124.3283137908458,260,118.67210285102078,260C113.01589191119577,260,107.36741860603536,260,101.71894530087495,260C96.07047199571456,260,90.42199869055413,260,84.77352538539373,260C79.12505208023332,260,73.47657877507291,260,67.8203678352479,260C62.164156895422884,260,56.50020832093327,260,50.84399738110826,260C45.18778644128326,260,39.53931313612285,260,33.89083983096244,260C28.242366525802037,260,22.59389322064163,260,16.94541991548122,260C11.296946610320814,260,5.648473305160407,260,2.8242366525802036,260L0,260Z"><title>Other</title></path><path fill="#d62728" d="M0,260L2.8242366525802036,260C5.648473305160407,260,11.296946610320814,260,16.94541991548122,260C22.59389322064163,260,28.242366525802037,260,33.89083983096244,260C39.53931313612285,260,45.18778644128326,260,50.84399738110827,260C56.50020832093327,260,62.164156895422884,260,67.8203678352479,260C73.47657877507291,260,79.12505208023332,260,84.77352538539373,260C90.42199869055413,260,96.07047199571456,260,101.71894530087496,260C107.36741860603536,260,113.01589191119577,260,118.67210285102077,260C124.3283137908458,260,129.9922623653354,260,135.6484733051604,259.8333333333333C141.30468424498542,259.6666666666667,146.95315755014585,259.3333333333333,152.60163085530624,259.3333333333333C158.25010416046663,259.3333333333333,163.89857746562703,259.6666666666667,169.54705077078745,259.8333333333333C175.19552407594787,260,180.84399738110827,260,186.5002083209333,260C192.1564192607583,260,197.8203678352479,260,203.4765787750729,260C209.13278971489794,260,214.78126302005833,260,220.42973632521876,260C226.07820963037918,260,231.72668293553957,260,237.37515624069997,259.8333333333333C243.02362954586036,259.6666666666667,248.67210285102078,259.3333333333333,254.3279913894014,259.3333333333333C259.9838799277821,259.3333333333333,265.647183699383,259.6666666666667,271.3030722377637,259.8333333333333C276.9589607761443,260,282.6074340813047,260,288.2559073864651,260C293.9043806916255,260,299.5528539967859,260,305.2013273019463,260C310.8498006071067,260,316.49827391226717,260,322.15448485209214,260C327.81069579191717,260,333.4746443664068,260,339.13117770767616,260C344.78771104894554,260,350.43682915699463,260,356.08562486359943,260C361.7344205702041,260,367.3828938753646,260,373.03136718052497,260C378.6798404856854,260,384.3283137908458,260,389.9845247306708,260C395.6407356704958,260,401.3046842449855,260,406.96089518481045,260C412.6171061246355,260,418.2655794297959,260,423.91405273495633,260C429.56252604011667,260,435.2109993452771,260,440.8594726504375,260C446.5079459555979,260,452.15641926075824,260,457.8126302005833,260C463.4688411404083,260,469.1327897148979,260,474.78900065472294,260C480.44521159454797,260,486.0936848997083,260,491.7421582048687,259.8333333333333C497.39063151002915,259.6666666666667,503.03910481518955,259.3333333333333,508.68757812035,259.31647224214737C514.3360514255104,259.2996111509614,519.9845247306707,259.5992223019228,525.6407356704957,258.93597205714497C531.2969466103208,258.27272181236725,536.9608951848104,256.6466101718502,542.6171061246354,255.71581222255986C548.2733170644605,254.78501427326944,553.9217903696208,254.54953001520553,559.5702636747812,254.37786933240443C565.2187369799417,254.20620864960335,570.867210285102,254.09837154206502,576.5153611888181,253.23177770204893C582.1635120925342,252.36518386203275,587.8113405948058,250.7398332895389,593.4672291331865,250.6538492278629C599.1231176715671,250.56786516618695,604.7870662460567,252.0212476153289,610.443599587326,251.5410702792285C616.1001329285955,251.06089294312804,621.7492510366446,248.64715582178528,627.3980467432494,247.08638207592696C633.0468424498541,245.52560833006862,638.6953157550146,244.81779795969473,644.343789060175,243.74435410706454C649.9922623653355,242.6709102544344,655.6407356704958,241.23183291954805,661.2969466103208,239.64237620332332C666.9531575501458,238.0529194870986,672.6171061246354,236.31308338953556,678.2733170644603,231.1054417624243C683.9295280042853,225.89780013531308,689.5780013094458,217.2223529786536,695.2264746146062,207.72381020577072C700.8749479197667,198.22526743288776,706.5234212249271,187.9036290437814,712.1718945300876,181.2365291318528C717.8203678352479,174.56942921992416,723.4688411404082,171.55686778517335,729.1250520802333,168.06110051185613C734.7812630200583,164.5653332385389,740.4452115945479,160.58636012665528,746.1014225343729,157.0624271092525C751.757633474198,153.53849409184974,757.4061067793583,150.46960116892777,763.0545800845188,146.97245897055473C768.7030533896792,143.47531677218169,774.3515266948397,139.5499252983575,777.1757633474199,137.5872295614454L780,135.62453382453333L780,231.29706321528334L777.1757633474198,230.85645872927876C774.3515266948397,230.4158542432742,768.7030533896792,229.53464527126502,763.0545800845188,227.75367233766585C757.4061067793583,225.97269940406667,751.757633474198,223.2919625088775,746.1014225343729,220.89395524603583C740.4452115945479,218.49594798319416,734.7812630200583,216.3806703527,729.1250520802332,213.74945689294773C723.4688411404082,211.11824343319554,717.8203678352479,207.9710941441853,712.1718945300876,210.58131852420556C706.5234212249271,213.19154290422583,700.8749479197667,221.55914095327668,695.2264746146062,229.39963502306236C689.5780013094458,237.24012909284806,683.9295280042853,244.5535191833686,678.2733170644603,248.2743545497854C672.6171061246354,251.9951899162022,666.9531575501458,252.12347055851527,661.2969466103208,252.17191909426776C655.6407356704958,252.2203676300203,649.9922623653355,252.18898405921223,644.343789060175,252.16309004288402C638.6953157550146,252.13719602655587,633.0468424498541,252.11679156470754,627.3980467432494,253.11453882489914C621.7492510366446,254.11228608509086,616.1001329285955,256.1281850673225,610.443599587326,256.3202725784924C604.7870662460567,256.51236008966225,599.1231176715671,254.8806361297703,593.4672291331865,254.79004263666707C587.8113405948058,254.6994491435639,582.1635120925342,256.14998611724945,576.5153611888181,256.8747459666267C570.867210285102,257.59950581600384,565.2187369799417,257.59848854107275,559.5702636747812,257.56934391877667C553.9217903696208,257.5401992964806,548.2733170644605,257.48292732681944,542.6171061246355,257.8833487824625C536.9608951848104,258.28377023810555,531.2969466103208,259.1418851190528,525.6407356704957,259.40427589285974C519.9845247306707,259.6666666666667,514.3360514255104,259.3333333333333,508.6875781203499,259.3333333333333C503.03910481518955,259.3333333333333,497.39063151002915,259.6666666666667,491.74215820486876,259.8333333333333C486.0936848997083,260,480.44521159454797,260,474.78900065472294,260C469.1327897148979,260,463.4688411404083,260,457.81263020058327,260C452.15641926075824,260,446.5079459555979,260,440.8594726504375,260C435.2109993452771,260,429.56252604011667,260,423.91405273495633,260C418.2655794297959,260,412.6171061246355,260,406.96089518481045,260C401.3046842449855,260,395.6407356704958,260,389.9845247306708,260C384.3283137908458,260,378.6798404856854,260,373.03136718052497,260C367.3828938753646,260,361.7344205702041,260,356.08562486359943,260C350.43682915699463,260,344.78771104894554,260,339.13117770767616,260C333.4746443664068,260,327.81069579191717,260,322.15448485209214,260C316.49827391226717,260,310.8498006071067,260,305.2013273019463,260C299.5528539967859,260,293.9043806916255,260,288.2559073864651,260C282.6074340813047,260,276.9589607761443,260,271.3030722377637,259.8333333333333C265.647183699383,259.6666666666667,259.9838799277821,259.3333333333333,254.3279913894014,259.3333333333333C248.67210285102078,259.3333333333333,243.02362954586036,259.6666666666667,237.37515624069997,259.8333333333333C231.72668293553957,260,226.07820963037918,260,220.42973632521876,260C214.78126302005833,260,209.13278971489794,260,203.47657877507297,260C197.8203678352479,260,192.1564192607583,260,186.5002083209333,260C180.84399738110827,260,175.19552407594787,260,169.54705077078745,259.8333333333333C163.89857746562703,259.6666666666667,158.25010416046663,259.3333333333333,152.60163085530624,259.3333333333333C146.95315755014585,259.3333333333333,141.30468424498542,259.6666666666667,135.6484733051604,259.8333333333333C129.9922623653354,260,124.3283137908458,260,118.67210285102078,260C113.01589191119577,260,107.36741860603536,260,101.71894530087495,260C96.07047199571456,260,90.42199869055413,260,84.77352538539373,260C79.12505208023332,260,73.47657877507291,260,67.8203678352479,260C62.164156895422884,260,56.50020832093327,260,50.84399738110826,260C45.18778644128326,260,39.53931313612285,260,33.89083983096244,260C28.242366525802037,260,22.59389322064163,260,16.94541991548122,260C11.296946610320814,260,5.648473305160407,260,2.8242366525802036,260L0,260Z"><title>Streaming</title></path><path fill="#8c564b" d="M0,133.20696732592498L2.8242366525802036,133.5763685963847C5.648473305160407,133.94576986684442,11.296946610320814,134.68457240776388,16.94541991548122,135.1567959492C22.59389322064163,135.6290194906361,28.242366525802037,135.8346640325889,33.89083983096244,134.2259642834028C39.53931313612285,132.61726453421667,45.18778644128326,129.19422049389166,50.84399738110827,123.02117417063471C56.50020832093327,116.84812784737774,62.164156895422884,107.92507924118887,67.8203678352479,100.88040019184443C73.47657877507291,93.83572114249999,79.12505208023332,88.66941164999999,84.77352538539373,91.96629744999997C90.42199869055413,95.26318324999998,96.07047199571456,107.02326434249998,101.71894530087496,115.64626747258332C107.36741860603536,124.26927060266667,113.01589191119577,129.75519577033333,118.67210285102077,132.94461805977778C124.3283137908458,136.13404034922223,129.9922623653354,137.02695976044444,135.6484733051604,140.12954658015835C141.30468424498542,143.23213339987223,146.95315755014585,148.54438762807777,152.60163085530624,151.00941495850415C158.25010416046663,153.47444228893053,163.89857746562703,153.09224272157778,169.54705077078745,161.94919667180835C175.19552407594787,170.8061506220389,180.84399738110827,188.9022580898528,186.5002083209333,198.24748053975975C192.1564192607583,207.5927029896667,197.8203678352479,208.18704042166667,203.4765787750729,207.8358757974306C209.13278971489794,207.48471117319446,214.78126302005833,206.18804449272224,220.42973632521876,210.67570382256943C226.07820963037918,215.16336315241665,231.72668293553957,225.43534849258333,237.37515624069997,231.6729091785417C243.02362954586036,237.9104698645,248.67210285102078,240.11360589624996,254.3279913894014,242.31272758037497C259.9838799277821,244.5118492645,265.647183699383,246.706956601,271.3030722377637,248.24007688793054C276.9589607761443,249.7731971748611,282.6074340813047,250.64433041222222,288.2559073864651,252.1777782571875C293.9043806916255,253.71122610215275,299.5528539967859,255.90698855472223,305.2013273019463,257.0581978819333C310.8498006071067,258.20940720914444,316.49827391226717,258.31606341099723,322.15448485209214,258.4348524743736C327.81069579191717,258.55364153775,333.4746443664068,258.68456346265,339.13117770767616,258.74498610758053C344.78771104894554,258.8054087525111,350.43682915699463,258.79533211747224,356.08562486359943,258.77527687954586C361.7344205702041,258.75522164161947,367.3828938753646,258.72518780080554,373.03136718052497,258.6796329458611C378.6798404856854,258.6340780909167,384.3283137908458,258.5730022218417,389.9845247306708,258.5923180511847C395.6407356704958,258.6116338805278,401.3046842449855,258.7113414082889,406.96089518481045,258.7902880746986C412.6171061246355,258.8692347411083,418.2655794297959,258.9274205461666,423.91405273495633,258.9601667271486C429.56252604011667,258.99291290813056,435.2109993452771,259.0002194650361,440.8594726504375,259.0245315452889C446.5079459555979,259.0488436255417,452.15641926075824,259.09016122914164,457.8126302005833,259.1023140924111C463.4688411404083,259.1144669556806,469.1327897148979,259.0974550786195,474.78900065472294,259.12571737570556C480.44521159454797,259.15397967279165,486.0936848997083,259.227516144025,491.7421582048687,258.9390659401444C497.39063151002915,258.6506157362639,503.03910481518955,258.0001788572694,508.68757812035,257.6127709337363C514.3360514255104,257.225363010203,519.9845247306707,257.1009840421311,525.6407356704957,257.28030293861167C531.2969466103208,257.4596218350922,536.9608951848104,257.9426385961253,542.6171061246354,258.2127829614723C548.2733170644605,258.48292732681944,553.9217903696208,258.5401992964806,559.5702636747812,258.56934391877667C565.2187369799417,258.59848854107275,570.867210285102,258.59950581600384,576.5153611888181,258.5368838253118C582.1635120925342,258.4742618346197,587.8113405948058,258.34800057830444,593.4672291331865,258.43859407140764C599.1231176715671,258.52918756451083,604.7870662460567,258.8366358070325,610.443599587326,258.93995123550184C616.1001329285955,259.0432666639711,621.7492510366446,258.9424492783881,627.3980467432494,258.8306384525352C633.0468424498541,258.71882762668224,638.6953157550146,258.59602336055946,644.343789060175,258.45641207701254C649.9922623653355,258.3168007934656,655.6407356704958,258.1603824924944,661.2969466103208,257.99136504805983C666.9531575501458,257.82234760362525,672.6171061246354,257.6407310157272,678.2733170644603,257.48721255839286C683.9295280042853,257.3336941010586,689.5780013094458,257.20827377428805,695.2264746146062,256.25445336079747C700.8749479197667,255.30063294730692,706.5234212249271,253.51841244709638,712.1718945300876,252.61116115237266C717.8203678352479,251.70390985764888,723.4688411404082,251.67162776841192,729.1250520802333,251.62024201464192C734.7812630200583,251.56885626087194,740.4452115945479,251.49836684256888,746.1014225343729,251.35954289786864C751.757633474198,251.22071895316833,757.4061067793583,251.01356048207083,763.0545800845188,250.81126407606902C768.7030533896792,250.60896767006724,774.3515266948397,250.4115333291611,777.1757633474199,250.31281615870807L780,250.214098988255L780,255.6782683751975L777.1757633474198,255.64666328442559C774.3515266948397,255.6150581936536,768.7030533896792,255.55184801210973,763.0545800845188,255.58652907767393C757.4061067793583,255.62121014323807,751.757633474198,255.75378245591028,746.1014225343729,255.80521718500276C740.4452115945479,255.8566519140953,734.7812630200583,255.82694905960807,729.1250520802332,255.7957338936293C723.4688411404082,255.7645187276505,717.8203678352479,255.73179125018024,712.1718945300876,256.43225021599346C706.5234212249271,257.13270918180666,700.8749479197667,258.5663545909033,695.2264746146062,259.28317729545165C689.5780013094458,260,683.9295280042853,260,678.2733170644603,260C672.6171061246354,260,666.9531575501458,260,661.2969466103208,260C655.6407356704958,260,649.9922623653355,260,644.343789060175,260C638.6953157550146,260,633.0468424498541,260,627.3980467432494,260C621.7492510366446,260,616.1001329285955,260,610.443599587326,259.83140376140517C604.7870662460567,259.6628075228103,599.1231176715671,259.32561504562057,593.4672291331865,259.1522681630829C587.8113405948058,258.9789212805453,582.1635120925342,258.96941999265977,576.5153611888181,258.96287768566015C570.867210285102,258.9563353786605,565.2187369799417,258.95275205254694,559.5702636747812,258.9284696559832C553.9217903696208,258.9041872594194,548.2733170644605,258.8592057924056,542.6171061246355,258.62623573071124C536.9608951848104,258.39326566901696,531.2969466103208,257.9723070126422,525.6407356704957,257.8366029584103C519.9845247306707,257.70089890417836,514.3360514255104,257.85044945208915,508.6875781203499,258.2585580593779C503.03910481518955,258.6666666666667,497.39063151002915,259.3333333333333,491.74215820486876,259.6666666666667C486.0936848997083,260,480.44521159454797,260,474.78900065472294,260C469.1327897148979,260,463.4688411404083,260,457.81263020058327,260C452.15641926075824,260,446.5079459555979,260,440.8594726504375,260C435.2109993452771,260,429.56252604011667,260,423.91405273495633,260C418.2655794297959,260,412.6171061246355,260,406.96089518481045,260C401.3046842449855,260,395.6407356704958,260,389.9845247306708,260C384.3283137908458,260,378.6798404856854,260,373.03136718052497,260C367.3828938753646,260,361.7344205702041,260,356.08562486359943,260C350.43682915699463,260,344.78771104894554,260,339.13117770767616,260C333.4746443664068,260,327.81069579191717,260,322.15448485209214,260C316.49827391226717,260,310.8498006071067,260,305.2013273019463,259.2248086008611C299.5528539967859,258.4496172017222,293.9043806916255,256.89923440344444,288.2559073864651,256.30297921594445C282.6074340813047,255.70672402844443,276.9589607761443,256.06459645172225,271.3030722377637,256.67312118419443C265.647183699383,257.28164591666666,259.9838799277821,258.14082295833333,254.3279913894014,258.7370781458333C248.67210285102078,259.3333333333333,243.02362954586036,259.6666666666667,237.37515624069997,255.7493594326389C231.72668293553957,251.8320521986111,226.07820963037918,243.66410439722222,220.42973632521876,241.82648665204167C214.78126302005833,239.98886890686114,209.13278971489794,244.4815812178889,203.47657877507297,247.93995119211112C197.8203678352479,251.39832116633337,192.1564192607583,253.82234880375003,186.5002083209333,246.85418048513472C180.84399738110827,239.88601216651944,175.19552407594787,223.52564789187218,169.54705077078745,217.02302788229443C163.89857746562703,210.52040787271665,158.25010416046663,213.8755321282083,152.60163085530624,215.52814665457365C146.95315755014585,217.1807611809389,141.30468424498542,217.13086597817778,135.6484733051604,217.19078740617223C129.9922623653354,217.25070883416666,124.3283137908458,217.42044689291666,118.67210285102078,216.36450645631945C113.01589191119577,215.30856601972224,107.36741860603536,213.02694708777778,101.71894530087495,210.03243941902778C96.07047199571456,207.0379317502778,90.42199869055413,203.33053534472222,84.77352538539373,203.29416788986111C79.12505208023332,203.257800435,73.47657877507291,206.89246193083332,67.8203678352479,210.06331865767777C62.164156895422884,213.23417538452222,56.50020832093327,215.9412273423778,50.84399738110826,218.0826940392458C45.18778644128326,220.22416073611387,39.53931313612285,221.80004217199448,33.89083983096244,222.44209538534724C28.242366525802037,223.0841485987,22.59389322064163,222.792373589525,16.94541991548122,222.69353376767222C11.296946610320814,222.59469394581944,5.648473305160407,222.6887893112889,2.8242366525802036,222.73583699402363L0,222.78288467675833Z"><title>Vinyl</title></path></g><g id="xAxis" transform="translate(0,260)" fill="none" font-size="10" font-family="sans-serif" text-anchor="middle"><path class="domain" stroke="currentColor" d="M0.5,0.5H780.5"/><g class="tick" opacity="1" transform="translate(34.39083983096244,0)"><line stroke="currentColor" y2="6"/><text fill="currentColor" y="9" dy="0.71em">1975</text></g><g class="tick" opacity="1" transform="translate(119.16436521635617,0)"><line stroke="currentColor" y2="6"/><text fill="currentColor" y="9" dy="0.71em">1980</text></g><g class="tick" opacity="1" transform="translate(203.98431640973754,0)"><line stroke="currentColor" y2="6"/><text fill="currentColor" y="9" dy="0.71em">1985</text></g><g class="tick" opacity="1" transform="translate(288.7559073864651,0)"><line stroke="currentColor" y2="6"/><text fill="currentColor" y="9" dy="0.71em">1990</text></g><g class="tick" opacity="1" transform="translate(373.53136718052497,0)"><line stroke="currentColor" y2="6"/><text fill="currentColor" y="9" dy="0.71em">1995</text></g><g class="tick" opacity="1" transform="translate(458.3048925659187,0)"><line stroke="currentColor" y2="6"/><text fill="currentColor" y="9" dy="0.71em">2000</text></g><g class="tick" opacity="1" transform="translate(543.1248437593,0)"><line stroke="currentColor" y2="6"/><text fill="currentColor" y="9" dy="0.71em">2005</text></g><g class="tick" opacity="1" transform="translate(627.8983691446938,0)"><line stroke="currentColor" y2="6"/><text fill="currentColor" y="9" dy="0.71em">2010</text></g><g class="tick" opacity="1" transform="translate(712.6718945300876,0)"><line stroke="currentColor" y2="6"/><text fill="currentColor" y="9" dy="0.71em">2015</text></g></g><text y="256" x="780" text-anchor="end" style="font-family: Arial, sans-serif; font-size: 12px; fill: rgb(123, 123, 123); font-weight: bold;">Year</text><text x="4" text-anchor="start" dominant-baseline="hanging" style="font-family: Arial, sans-serif; font-size: 12px; fill: rgb(123, 123, 123); font-weight: bold;">Revenues in millions (Adjusted for inflation)</text><g id="labels"><text x="254.32057615618118" y="150.86254492331665" text-anchor="middle" alignment-baseline="middle" style="font-family: Arial, sans-serif; font-size: 10px; fill: black; font-weight: bold;">Tape</text><text x="440.8594726504375" y="122.918760458725" text-anchor="middle" alignment-baseline="middle" style="font-family: Arial, sans-serif; font-size: 10px; fill: black; font-weight: bold;">Disc</text><text x="661.2892089756562" y="189.56087029212918" text-anchor="middle" alignment-baseline="middle" style="font-family: Arial, sans-serif; font-size: 10px; fill: black; font-weight: bold;">Download</text><text x="525.6329980358312" y="247.78718240997205" text-anchor="middle" alignment-baseline="middle" style="font-family: Arial, sans-serif; font-size: 10px; fill: black; font-weight: bold;">Other</text><text x="780" y="183.4607985199083" text-anchor="end" alignment-baseline="middle" style="font-family: Arial, sans-serif; font-size: 10px; fill: black; font-weight: bold;">Streaming</text><text x="84.77352538539373" y="141.56312054833333" text-anchor="middle" alignment-baseline="middle" style="font-family: Arial, sans-serif; font-size: 10px; fill: black; font-weight: bold;">Vinyl</text></g></g><text x="4" y="4" style="font-family: Arial, sans-serif; font-size: 12px; fill: black; font-weight: bold; dominant-baseline: hanging;"/></g></g></svg>