<svg xmlns="http://www.w3.org/2000/svg" width="805" height="600"><rect width="805" height="600" x="0" y="0" fill="#FFFFFF" id="background"/><g id="viz"><g transform="translate(0,0)"><g transform="translate(10,20)"><g><path fill="#f65f18" d="M0,337.4633252604833L2.842340733686487,336.964175037175C5.684681467372974,336.46502481386665,11.369362934745949,335.46672436725004,17.054044402118922,335.1710617081556C22.738725869491898,334.8753990490611,28.42340733686487,335.2823741774889,34.108088804237845,335.63193621708336C39.79277027161081,335.98149825667775,45.47745173898378,336.2736472074389,51.16992044124357,338.30915343923056C56.86238914350336,340.34465967102227,62.56264508064995,344.1235231838445,68.25511378290975,344.88056305608893C73.94758248516952,345.63760292833337,79.63226395254252,343.37281916,85.31694541991548,339.90065666277775C91.00162688728847,336.42849416555555,96.68630835466143,331.74895293944445,102.37098982203442,328.9123507012778C108.05567128940739,326.0757484631111,113.74035275678035,325.0820852128889,119.43282145904014,323.9216559953889C125.12529016129992,322.7612267778889,130.8255460984465,321.4340315931111,136.5180148007063,318.1432098910723C142.21048350296607,314.8523881890334,147.89516497033904,309.5979399697334,153.57984643771204,303.7349977886973C159.26452790508503,297.87205560766114,164.949209372458,291.40061946488885,170.63389083983097,285.27119853987216C176.31857230720394,279.1417776148555,182.00325377457693,273.35437190759444,187.69572247683672,270.40533634763057C193.38819117909648,267.4563007876667,199.0884471162431,267.34563537500003,204.78091581850288,267.79267253375C210.47338452076266,268.23970969250007,216.15806598813563,269.2444494226667,221.8427474555086,269.69157978062225C227.52742892288157,270.1387101385778,233.21211039025457,270.02823112432225,238.8967918576275,269.0056102523028C244.5814733250005,267.9829893802833,250.26615479237344,266.0482266505,255.95829902651295,265.72171675715555C261.6504432606525,265.3952068638111,267.3500502615585,266.67694980690555,273.042194495698,269.6308834954778C278.73433872983753,272.58481718405,284.4190201972105,277.2109416181,290.10370166458347,284.0874684058833C295.78838313195644,290.9639951936667,301.4730645993294,300.09092433518333,307.1577460667024,307.55781683933054C312.84242753407534,315.02470934347775,318.5271090014483,320.8315652102555,324.2195777037081,328.40861497449436C329.91204640596794,335.98566473873325,335.61230234311455,345.3329084004333,341.30509551349456,356.22799362264715C346.99788868387463,367.1230788448611,352.6832190874882,379.56600562758894,358.36822502298145,390.73697102531395C364.0532309584748,401.90793642303896,369.7379124258477,411.80694043576113,375.42259389322066,419.5772239120195C381.10727536059363,427.3475073882778,386.79195682796654,432.9890703280723,392.4844255302264,437.012633608425C398.1768942324862,441.0361968887778,403.8771501696328,443.4417605096889,409.56961887189254,449.5826847551472C415.2620875741524,455.72360900060556,420.94676904152533,465.59989387061114,426.6314505088983,474.85557600918884C432.31613197627127,484.11125814776665,438.0008134436442,492.74633755491664,443.6854949110172,497.87609324025806C449.37017637839017,503.0058489255994,455.05485784576314,504.6302808891323,460.74732654802284,504.27818204102306C466.4397952502827,503.92608319291395,472.14005118742926,501.59745353316276,477.8325198896891,497.58963069093255C483.5249885919489,493.5818078487022,489.2096700593218,487.89479182399276,494.89435152669483,482.79278839524636C500.5790329940678,477.69078496649996,506.26371446144077,473.1737941337167,511.9483959288137,471.83522922535616C517.6330773961868,470.4966643169956,523.3177588635598,472.3365253330578,529.0102275658195,472.1093833904058C534.7026962680793,471.88224144775387,540.4029522052259,469.58809654638776,546.0954209074856,466.2040173987739C551.7878896097454,462.81993825116,557.4725710771185,458.34592485729837,563.1572525444914,452.65701545218195C568.8419340118644,446.96810604706553,574.5266154792374,440.0643006306944,580.21097247849,431.34615397225724C585.8953294777427,422.62800731382004,591.5793620088751,412.09551941331665,597.2715062430146,404.71424132206863C602.9636504771541,397.33296323082055,608.6639064143008,393.1028949488278,614.3566995846808,388.8320252164717C620.0494927550609,384.56115548411555,625.7348231586744,380.2494843013961,631.4198290941677,377.87355098758417C637.104835029661,375.49761767377225,642.789516497034,375.05742222886784,648.4741979644069,374.2580871730731C654.1588794317798,373.4587521172784,659.8435608991527,372.30027745059334,665.5360296014126,371.5430666527864C671.2284983036724,370.78585585497945,676.928754240819,370.4299089260506,682.6212229430788,369.2974940733556C688.3136916453386,368.1650792206606,693.9983731127114,366.2561964441995,699.6830545800844,365.3188967630708C705.3677360474575,364.3815970819422,711.0524175148306,364.41588049614614,716.7370989822035,366.05517066811393C722.4217804495765,367.6944608400817,728.1064619169493,370.9387577698133,733.7989306192093,374.70343021800113C739.491399321469,378.46810266618894,745.1916552586157,382.7531506328328,750.8841239608754,386.548155420805C756.5765926631351,390.3431602087772,762.261274130508,393.64812181807775,767.945955597881,397.41427495478723C773.6306370652541,401.18042809149665,779.315318532627,405.40777275561504,782.1576592663135,407.5214450876742L785,409.6351174197334L785,409.6351174197334L782.1576592663135,407.5214450876742C779.315318532627,405.40777275561504,773.6306370652541,401.18042809149665,767.945955597881,397.41427495478723C762.261274130508,393.64812181807775,756.5765926631351,390.3431602087772,750.8841239608754,386.54815542080496C745.1916552586157,382.7531506328328,739.491399321469,378.46810266618894,733.7989306192093,374.70343021800113C728.1064619169493,370.9387577698133,722.4217804495765,367.6944608400817,716.7370989822035,366.05517066811393C711.0524175148306,364.41588049614614,705.3677360474575,364.3815970819422,699.6830545800844,365.3188967630708C693.9983731127114,366.2561964441995,688.3136916453386,368.1650792206606,682.6212229430788,369.2974940733555C676.928754240819,370.4299089260506,671.2284983036724,370.78585585497945,665.5360296014126,371.54306665278637C659.8435608991527,372.30027745059334,654.1588794317798,373.4587521172784,648.4741979644069,374.2580871730731C642.789516497034,375.05742222886784,637.104835029661,375.49761767377225,631.4198290941677,377.87355098758417C625.7348231586744,380.2494843013961,620.0494927550609,384.56115548411555,614.3566995846808,388.8361812175478C608.6639064143008,393.11120695098,602.9636504771541,397.349587235125,597.2715062430146,404.74525348363363C591.5793620088751,412.14091973214227,585.8953294777427,422.69387194501445,580.21097247849,431.42610972622C574.5266154792374,440.15834750742556,568.8419340118644,447.0698708569644,563.1572525444914,452.8110808085258C557.4725710771185,458.55229076008726,551.7878896097454,463.12318731367117,546.0954209074856,466.61375757725165C540.4029522052259,470.10432784083224,534.7026962680793,472.51457181440946,529.0102275658195,473.25913028252256C523.3177588635598,474.0036887506356,517.6330773961868,473.0825617132845,511.9483959288137,475.4558531160005C506.26371446144077,477.8291445187167,500.5790329940678,483.4968543615,494.89435152669483,490.05484377313525C489.2096700593218,496.6128331847706,483.5249885919489,504.06110216525775,477.8325198896891,510.55032080164966C472.14005118742926,517.0395394380416,466.4397952502827,522.5697077303383,460.74732654802295,527.5034942459974C455.05485784576314,532.4372807616567,449.37017637839017,536.7746855006783,443.6854949110172,537.2405715553974C438.0008134436442,537.7064576101166,432.31613197627127,534.3008249805333,426.6314505088983,528.6827404377945C420.94676904152533,523.0646558950556,415.2620875741524,515.2341194391611,409.56961887189254,513.1294571265917C403.8771501696328,511.02479481402224,398.1768942324862,514.6460066447778,392.4844255302264,516.9327756242028C386.79195682796654,519.2195446036278,381.10727536059363,520.1718707317223,375.42259389322066,520.9406510217973C369.7379124258477,521.7094313118722,364.0532309584748,522.2946657639278,358.36822502298145,516.6697473625917C352.6832190874882,511.0448289612555,346.99788868387463,499.2097577065278,341.30509551349456,490.703602989036C335.61230234311455,482.1974482715444,329.91204640596794,477.02021009128885,324.2195777037081,471.05148988555C318.5271090014483,465.08276967981107,312.84242753407534,458.32256744858887,307.1577460667024,455.0309308797195C301.4730645993294,451.73929431085,295.78838313195644,451.9162234043334,290.10370166458347,449.70224349310564C284.4190201972105,447.48826358187785,278.73433872983753,442.8833746659389,273.042194495698,440.4841845202556C267.3500502615585,438.08499437457226,261.6504432606525,437.89150299914445,255.95829902651295,435.8596838665222C250.26615479237344,433.8278647339,244.5814733250005,429.95771784408333,238.8967918576275,424.72345901282506C233.21211039025457,419.4892001815667,227.52742892288157,412.89082940886664,221.84274745550863,408.69760361632217C216.15806598813563,404.50437782377776,210.47338452076266,402.7162970113889,204.78091581850288,402.40697959486107C199.0884471162431,402.0976621783334,193.38819117909648,403.26710815766666,187.69572247683672,402.01060284040835C182.00325377457693,400.75409752315,176.31857230720394,397.0716409093,170.63389083983097,395.0246128353389C164.949209372458,392.9775847613778,159.26452790508503,392.5659852273056,153.57984643771204,395.40011722417495C147.89516497033904,398.2342492210444,142.21048350296607,404.3141127488556,136.5180148007063,407.83484727265C130.8255460984465,411.3555817964445,125.12529016129992,412.31718731622226,119.43282145904014,415.7519497817778C113.74035275678035,419.18671224733333,108.05567128940739,425.0946316586667,102.3709898220344,434.3809427218334C96.68630835466143,443.667253785,91.00162688728847,456.3319565,85.31694541991548,459.88244890000004C79.63226395254252,463.43294130000004,73.94758248516952,457.869223385,68.25511378290975,450.2826459472444C62.56264508064995,442.6960685094889,56.86238914350336,433.0866315489778,51.16992044124357,426.43873550854727C45.47745173898378,419.7908394681167,39.79277027161081,416.1044843477667,34.108088804237845,414.3720384640278C28.42340733686487,412.6395925802888,22.738725869491898,412.86105593316114,17.054044402118922,413.36960436239997C11.369362934745949,413.8781527916389,5.684681467372974,414.6737862972445,2.842340733686487,415.07160305004726L0,415.46941980285004Z"><title>Tape</title></path><path fill="#ea4b80" d="M0,337.4633252604833L2.842340733686487,336.964175037175C5.684681467372974,336.46502481386665,11.369362934745949,335.46672436725004,17.054044402118922,335.1710617081556C22.738725869491898,334.8753990490611,28.42340733686487,335.2823741774889,34.108088804237845,335.63193621708336C39.79277027161081,335.98149825667775,45.47745173898378,336.2736472074389,51.16992044124357,338.30915343923056C56.86238914350336,340.34465967102227,62.56264508064995,344.1235231838445,68.25511378290975,344.88056305608893C73.94758248516952,345.63760292833337,79.63226395254252,343.37281916,85.31694541991548,339.90065666277775C91.00162688728847,336.42849416555555,96.68630835466143,331.74895293944445,102.37098982203442,328.9123507012778C108.05567128940739,326.0757484631111,113.74035275678035,325.0820852128889,119.43282145904014,323.9216559953889C125.12529016129992,322.7612267778889,130.8255460984465,321.4340315931111,136.5180148007063,318.1432098910723C142.21048350296607,314.8523881890334,147.89516497033904,309.5979399697334,153.57984643771204,303.5633048904362C159.26452790508503,297.5286698111389,164.949209372458,290.71384787184445,170.63389083983097,283.59594669493885C176.31857230720394,276.4780455180333,182.00325377457693,269.05706510351666,187.69572247683672,262.68075088809167C193.38819117909648,256.30443667266667,199.0884471162431,250.97278865633334,204.78091581850288,243.9710289475278C210.47338452076266,236.96926923872226,216.15806598813563,228.29739783744446,221.8427474555086,218.39639017023333C227.52742892288157,208.49538250302226,233.21211039025457,197.3652385698778,238.8967918576275,187.13351076523057C244.5814733250005,176.90178296058335,250.26615479237344,167.56847128443331,255.95829902651295,160.44110801164442C261.6504432606525,153.31374473885552,267.3500502615585,148.39232986942775,273.042194495698,142.69103449035555C278.73433872983753,136.98973911128334,284.4190201972105,130.5085632225667,290.10370166458347,126.21284368808892C295.78838313195644,121.91712415361114,301.4730645993294,119.80686097337222,307.1577460667024,115.51007005756942C312.84242753407534,111.21327914176663,318.5271090014483,104.72996049039996,324.2195777037081,99.11088518411107C329.91204640596794,93.49180987782218,335.61230234311455,88.73697791661108,341.30509551349456,80.53565164650833C346.99788868387463,72.33432537640556,352.6832190874882,60.686504797411125,358.36822502298145,55.07437252253612C364.0532309584748,49.462240247661136,369.7379124258477,49.88579627690558,375.42259389322066,50.6984111052028C381.10727536059363,51.511025933500015,386.79195682796654,52.71269956084999,392.4844255302264,55.52708742192499C398.1768942324862,58.341475282999966,403.8771501696328,62.768577377799964,409.56961887189254,62.0963469668694C415.2620875741524,61.42411655593884,420.94676904152533,55.652553639277734,426.6314505088983,50.2055704240222C432.31613197627127,44.75858720876666,438.0008134436442,39.6361836949167,443.6854949110172,38.578739921646985C449.37017637839017,37.521296148377274,455.05485784576314,40.528812115687806,460.74732654802284,45.070163442634176C466.4397952502827,49.611514769580545,472.14005118742926,55.68670145616275,477.8325198896891,62.12828190526026C483.5249885919489,68.56986235435777,489.2096700593218,75.37783656597058,494.89435152669483,82.16141352630753C500.5790329940678,88.94499048664447,506.26371446144077,95.70417019570554,511.9483959288137,100.62420322123943C517.6330773961868,105.54423624677331,523.3177588635598,108.62512258878,529.0102275658195,115.76821566400027C534.7026962680793,122.91130873922059,540.4029522052259,134.11660854765447,546.0954209074856,144.85673059476503C551.7878896097454,155.59685264187559,557.4725710771185,165.87179692766276,563.1572525444914,178.02749566136302C568.8419340118644,190.1831943950633,574.5266154792374,204.21964757667664,580.21097247849,216.49329784699944C585.8953294777427,228.76694811732224,591.5793620088751,239.27779547635444,597.2715062430146,247.6739571389203C602.9636504771541,256.0701188014861,608.6639064143008,262.35159476758554,614.3566995846808,267.90158609599774C620.0494927550609,273.45157742441,625.7348231586744,278.270084115135,631.4198290941677,282.2070364277519C637.104835029661,286.14398874036885,642.789516497034,289.19938667487776,648.4741979644069,293.091568829813C654.1588794317798,296.9837509847483,659.8435608991527,301.71271736011,665.5360296014126,305.5308865300903C671.2284983036724,309.34905570007055,676.928754240819,312.25642766466945,682.6212229430788,314.42924808988C688.3136916453386,316.60206851509054,693.9983731127114,318.04033740091273,699.6830545800844,320.183981212268C705.3677360474575,322.3276250236233,711.0524175148306,325.17664376051164,716.7370989822035,329.60380412278664C722.4217804495765,334.0309644850617,728.1064619169493,340.03626647272336,733.7989306192093,345.57367455967216C739.491399321469,351.11108264662107,745.1916552586157,356.1805968328572,750.8841239608754,361.89667072305446C756.5765926631351,367.61274461325166,762.261274130508,373.97537820740996,767.945955597881,379.64739409224444C773.6306370652541,385.3194099770788,779.315318532627,390.30080815258935,782.1576592663135,392.79150724034474L785,395.28220632809996L785,409.6351174197334L782.1576592663135,407.5214450876742C779.315318532627,405.40777275561504,773.6306370652541,401.18042809149665,767.945955597881,397.41427495478723C762.261274130508,393.64812181807775,756.5765926631351,390.3431602087772,750.8841239608754,386.54815542080496C745.1916552586157,382.7531506328328,739.491399321469,378.46810266618894,733.7989306192093,374.70343021800113C728.1064619169493,370.9387577698133,722.4217804495765,367.6944608400817,716.7370989822035,366.05517066811393C711.0524175148306,364.41588049614614,705.3677360474575,364.3815970819422,699.6830545800844,365.3188967630708C693.9983731127114,366.2561964441995,688.3136916453386,368.1650792206606,682.6212229430788,369.2974940733555C676.928754240819,370.4299089260506,671.2284983036724,370.78585585497945,665.5360296014126,371.54306665278637C659.8435608991527,372.30027745059334,654.1588794317798,373.4587521172784,648.4741979644069,374.2580871730731C642.789516497034,375.05742222886784,637.104835029661,375.49761767377225,631.4198290941677,377.87355098758417C625.7348231586744,380.2494843013961,620.0494927550609,384.56115548411555,614.3566995846808,388.83202521647166C608.6639064143008,393.1028949488278,602.9636504771541,397.33296323082055,597.2715062430146,404.71424132206863C591.5793620088751,412.09551941331665,585.8953294777427,422.62800731382004,580.21097247849,431.34615397225724C574.5266154792374,440.0643006306944,568.8419340118644,446.96810604706553,563.1572525444914,452.65701545218195C557.4725710771185,458.34592485729837,551.7878896097454,462.81993825116,546.0954209074856,466.2040173987739C540.4029522052259,469.58809654638776,534.7026962680793,471.88224144775387,529.0102275658195,472.10938339040587C523.3177588635598,472.3365253330578,517.6330773961868,470.4966643169956,511.9483959288137,471.83522922535616C506.26371446144077,473.1737941337167,500.5790329940678,477.69078496649996,494.89435152669483,482.79278839524636C489.2096700593218,487.89479182399276,483.5249885919489,493.5818078487022,477.8325198896891,497.58963069093244C472.14005118742926,501.59745353316276,466.4397952502827,503.92608319291395,460.74732654802295,504.27818204102306C455.05485784576314,504.6302808891323,449.37017637839017,503.0058489255994,443.6854949110172,497.87609324025806C438.0008134436442,492.74633755491664,432.31613197627127,484.11125814776665,426.6314505088983,474.85557600918884C420.94676904152533,465.59989387061114,415.2620875741524,455.72360900060556,409.56961887189254,449.5826847551472C403.8771501696328,443.4417605096889,398.1768942324862,441.0361968887778,392.4844255302264,437.012633608425C386.79195682796654,432.9890703280723,381.10727536059363,427.3475073882778,375.42259389322066,419.5772239120194C369.7379124258477,411.80694043576113,364.0532309584748,401.90793642303896,358.36822502298145,390.73697102531395C352.6832190874882,379.56600562758894,346.99788868387463,367.1230788448611,341.30509551349456,356.22799362264726C335.61230234311455,345.3329084004333,329.91204640596794,335.98566473873325,324.2195777037081,328.40861497449436C318.5271090014483,320.8315652102555,312.84242753407534,315.02470934347775,307.1577460667024,307.55781683933054C301.4730645993294,300.09092433518333,295.78838313195644,290.9639951936667,290.10370166458347,284.0874684058833C284.4190201972105,277.2109416181,278.73433872983753,272.58481718405,273.042194495698,269.6308834954778C267.3500502615585,266.67694980690555,261.6504432606525,265.3952068638111,255.95829902651295,265.72171675715555C250.26615479237344,266.0482266505,244.5814733250005,267.9829893802833,238.8967918576275,269.0056102523028C233.21211039025457,270.02823112432225,227.52742892288157,270.1387101385778,221.84274745550863,269.69157978062225C216.15806598813563,269.2444494226667,210.47338452076266,268.23970969250007,204.78091581850288,267.79267253375C199.0884471162431,267.34563537500003,193.38819117909648,267.4563007876667,187.69572247683672,270.40533634763057C182.00325377457693,273.35437190759444,176.31857230720394,279.1417776148555,170.63389083983097,285.27119853987216C164.949209372458,291.40061946488885,159.26452790508503,297.87205560766114,153.57984643771204,303.7349977886972C147.89516497033904,309.5979399697334,142.21048350296607,314.8523881890334,136.5180148007063,318.1432098910722C130.8255460984465,321.4340315931111,125.12529016129992,322.7612267778889,119.43282145904014,323.9216559953889C113.74035275678035,325.0820852128889,108.05567128940739,326.0757484631111,102.3709898220344,328.9123507012778C96.68630835466143,331.74895293944445,91.00162688728847,336.42849416555555,85.31694541991548,339.90065666277775C79.63226395254252,343.37281916,73.94758248516952,345.63760292833337,68.25511378290975,344.88056305608893C62.56264508064995,344.1235231838445,56.86238914350336,340.34465967102227,51.16992044124357,338.30915343923056C45.47745173898378,336.2736472074389,39.79277027161081,335.98149825667775,34.108088804237845,335.6319362170833C28.42340733686487,335.2823741774889,22.738725869491898,334.8753990490611,17.054044402118922,335.1710617081556C11.369362934745949,335.46672436725004,5.684681467372974,336.46502481386665,2.842340733686487,336.964175037175L0,337.4633252604833Z"><title>Disc</title></path><path fill="#2f9df5" d="M0,337.4633252604833L2.842340733686487,336.964175037175C5.684681467372974,336.46502481386665,11.369362934745949,335.46672436725004,17.054044402118922,335.1710617081556C22.738725869491898,334.8753990490611,28.42340733686487,335.2823741774889,34.108088804237845,335.63193621708336C39.79277027161081,335.98149825667775,45.47745173898378,336.2736472074389,51.16992044124357,338.30915343923056C56.86238914350336,340.34465967102227,62.56264508064995,344.1235231838445,68.25511378290975,344.88056305608893C73.94758248516952,345.63760292833337,79.63226395254252,343.37281916,85.31694541991548,339.90065666277775C91.00162688728847,336.42849416555555,96.68630835466143,331.74895293944445,102.37098982203442,328.9123507012778C108.05567128940739,326.0757484631111,113.74035275678035,325.0820852128889,119.43282145904014,323.9216559953889C125.12529016129992,322.7612267778889,130.8255460984465,321.4340315931111,136.5180148007063,318.1432098910723C142.21048350296607,314.8523881890334,147.89516497033904,309.5979399697334,153.57984643771204,303.5633048904362C159.26452790508503,297.5286698111389,164.949209372458,290.71384787184445,170.63389083983097,283.59594669493885C176.31857230720394,276.4780455180333,182.00325377457693,269.05706510351666,187.69572247683672,262.68075088809167C193.38819117909648,256.30443667266667,199.0884471162431,250.97278865633334,204.78091581850288,243.9710289475278C210.47338452076266,236.96926923872226,216.15806598813563,228.29739783744446,221.8427474555086,218.39639017023333C227.52742892288157,208.49538250302226,233.21211039025457,197.3652385698778,238.8967918576275,187.13351076523057C244.5814733250005,176.90178296058335,250.26615479237344,167.56847128443331,255.95829902651295,160.44110801164442C261.6504432606525,153.31374473885552,267.3500502615585,148.39232986942775,273.042194495698,142.69103449035555C278.73433872983753,136.98973911128334,284.4190201972105,130.5085632225667,290.10370166458347,126.21284368808892C295.78838313195644,121.91712415361114,301.4730645993294,119.80686097337222,307.1577460667024,115.51007005756942C312.84242753407534,111.21327914176663,318.5271090014483,104.72996049039996,324.2195777037081,99.11088518411107C329.91204640596794,93.49180987782218,335.61230234311455,88.73697791661108,341.30509551349456,80.53565164650833C346.99788868387463,72.33432537640556,352.6832190874882,60.686504797411125,358.36822502298145,55.07437252253612C364.0532309584748,49.462240247661136,369.7379124258477,49.88579627690558,375.42259389322066,50.6984111052028C381.10727536059363,51.511025933500015,386.79195682796654,52.71269956084999,392.4844255302264,55.52708742192499C398.1768942324862,58.341475282999966,403.8771501696328,62.768577377799964,409.56961887189254,62.0963469668694C415.2620875741524,61.42411655593884,420.94676904152533,55.652553639277734,426.6314505088983,50.2055704240222C432.31613197627127,44.75858720876666,438.0008134436442,39.6361836949167,443.6854949110172,38.578739921646985C449.37017637839017,37.521296148377274,455.05485784576314,40.528812115687806,460.74732654802284,45.070163442634176C466.4397952502827,49.611514769580545,472.14005118742926,55.68670145616275,477.8325198896891,62.12828190526026C483.5249885919489,68.56986235435777,489.2096700593218,75.37783656597058,494.89435152669483,82.16141352630753C500.5790329940678,88.94499048664447,506.26371446144077,95.70417019570554,511.9483959288137,99.65840292552275C517.6330773961868,103.61263565533996,523.3177588635598,104.76192140591331,529.0102275658195,107.19964281445027C534.7026962680793,109.63736422298722,540.4029522052259,113.36352128948774,546.0954209074856,116.93221272919273C551.7878896097454,120.50090416889772,557.4725710771185,123.91212998180718,563.1572525444914,129.29912457144079C568.8419340118644,134.68611916107443,574.5266154792374,142.04888252743226,580.21097247849,150.05687115252172C585.8953294777427,158.0648597776112,591.5793620088751,166.71807366143227,597.2715062430146,174.2611618165425C602.9636504771541,181.80424997165278,608.6639064143008,188.2372123980522,614.3566995846808,193.90959660005888C620.0494927550609,199.58198080206557,625.7348231586744,204.49378677967945,631.4198290941677,207.9320448128797C637.104835029661,211.37030284608,642.789516497034,213.33501293486665,648.4741979644069,216.44638090401864C654.1588794317798,219.55774887317057,659.8435608991527,223.81577472268773,665.5360296014126,227.99643075544023C671.2284983036724,232.17708678819272,676.928754240819,236.28037300418055,682.6212229430788,240.79215449023C688.3136916453386,245.30393597627946,693.9983731127114,250.22421273239055,699.6830545800844,255.13859276321693C705.3677360474575,260.05297279404334,711.0524175148306,264.961456099585,716.7370989822035,272.46184923994946C722.4217804495765,279.96224238031385,728.1064619169493,290.05454535550103,733.7989306192093,299.5971238020444C739.491399321469,309.13970224858775,745.1916552586157,318.1325561664872,750.8841239608754,327.39150509378055C756.5765926631351,336.6504540210739,762.261274130508,346.17549795776114,767.945955597881,354.21330813361106C773.6306370652541,362.2511183094611,779.315318532627,368.80169472447386,782.1576592663135,372.07698293198024L785,375.3522711394866L785,395.28220632809996L782.1576592663135,392.79150724034474C779.315318532627,390.30080815258935,773.6306370652541,385.3194099770788,767.945955597881,379.64739409224444C762.261274130508,373.97537820740996,756.5765926631351,367.61274461325166,750.8841239608754,361.89667072305446C745.1916552586157,356.1805968328572,739.491399321469,351.11108264662107,733.7989306192093,345.57367455967227C728.1064619169493,340.03626647272336,722.4217804495765,334.0309644850617,716.7370989822035,329.60380412278664C711.0524175148306,325.17664376051164,705.3677360474575,322.3276250236233,699.6830545800844,320.183981212268C693.9983731127114,318.04033740091273,688.3136916453386,316.60206851509054,682.6212229430788,314.42924808988C676.928754240819,312.25642766466945,671.2284983036724,309.34905570007055,665.5360296014126,305.5308865300903C659.8435608991527,301.71271736011,654.1588794317798,296.9837509847483,648.4741979644069,293.091568829813C642.789516497034,289.19938667487776,637.104835029661,286.14398874036885,631.4198290941677,282.2070364277519C625.7348231586744,278.270084115135,620.0494927550609,273.45157742441,614.3566995846808,267.90158609599774C608.6639064143008,262.35159476758554,602.9636504771541,256.0701188014861,597.2715062430146,247.6739571389203C591.5793620088751,239.27779547635444,585.8953294777427,228.76694811732224,580.21097247849,216.49329784699944C574.5266154792374,204.21964757667664,568.8419340118644,190.1831943950633,563.1572525444914,178.02749566136302C557.4725710771185,165.87179692766276,551.7878896097454,155.59685264187559,546.0954209074856,144.85673059476503C540.4029522052259,134.11660854765447,534.7026962680793,122.91130873922059,529.0102275658195,115.76821566400027C523.3177588635598,108.62512258878,517.6330773961868,105.54423624677331,511.9483959288137,100.62420322123943C506.26371446144077,95.70417019570554,500.5790329940678,88.94499048664447,494.89435152669483,82.16141352630753C489.2096700593218,75.37783656597058,483.5249885919489,68.56986235435777,477.8325198896891,62.12828190526026C472.14005118742926,55.68670145616275,466.4397952502827,49.611514769580545,460.74732654802295,45.070163442634176C455.05485784576314,40.528812115687806,449.37017637839017,37.521296148377274,443.6854949110172,38.578739921646985C438.0008134436442,39.6361836949167,432.31613197627127,44.75858720876666,426.6314505088983,50.2055704240222C420.94676904152533,55.652553639277734,415.2620875741524,61.42411655593884,409.56961887189254,62.0963469668694C403.8771501696328,62.768577377799964,398.1768942324862,58.341475282999966,392.4844255302264,55.52708742192497C386.79195682796654,52.71269956084999,381.10727536059363,51.511025933500015,375.42259389322066,50.6984111052028C369.7379124258477,49.88579627690558,364.0532309584748,49.462240247661136,358.36822502298145,55.07437252253613C352.6832190874882,60.686504797411125,346.99788868387463,72.33432537640556,341.30509551349456,80.53565164650831C335.61230234311455,88.73697791661108,329.91204640596794,93.49180987782218,324.2195777037081,99.11088518411107C318.5271090014483,104.72996049039996,312.84242753407534,111.21327914176663,307.1577460667024,115.51007005756942C301.4730645993294,119.80686097337222,295.78838313195644,121.91712415361114,290.10370166458347,126.21284368808891C284.4190201972105,130.5085632225667,278.73433872983753,136.98973911128334,273.042194495698,142.69103449035555C267.3500502615585,148.39232986942775,261.6504432606525,153.31374473885552,255.95829902651295,160.44110801164442C250.26615479237344,167.56847128443331,244.5814733250005,176.90178296058335,238.8967918576275,187.13351076523057C233.21211039025457,197.3652385698778,227.52742892288157,208.49538250302226,221.84274745550863,218.39639017023333C216.15806598813563,228.29739783744446,210.47338452076266,236.96926923872226,204.78091581850288,243.9710289475278C199.0884471162431,250.97278865633334,193.38819117909648,256.30443667266667,187.69572247683672,262.6807508880916C182.00325377457693,269.05706510351666,176.31857230720394,276.4780455180333,170.63389083983097,283.5959466949389C164.949209372458,290.71384787184445,159.26452790508503,297.5286698111389,153.57984643771204,303.5633048904362C147.89516497033904,309.5979399697334,142.21048350296607,314.8523881890334,136.5180148007063,318.1432098910722C130.8255460984465,321.4340315931111,125.12529016129992,322.7612267778889,119.43282145904014,323.9216559953889C113.74035275678035,325.0820852128889,108.05567128940739,326.0757484631111,102.3709898220344,328.9123507012778C96.68630835466143,331.74895293944445,91.00162688728847,336.42849416555555,85.31694541991548,339.90065666277775C79.63226395254252,343.37281916,73.94758248516952,345.63760292833337,68.25511378290975,344.88056305608893C62.56264508064995,344.1235231838445,56.86238914350336,340.34465967102227,51.16992044124357,338.30915343923056C45.47745173898378,336.2736472074389,39.79277027161081,335.98149825667775,34.108088804237845,335.6319362170833C28.42340733686487,335.2823741774889,22.738725869491898,334.8753990490611,17.054044402118922,335.1710617081556C11.369362934745949,335.46672436725004,5.684681467372974,336.46502481386665,2.842340733686487,336.964175037175L0,337.4633252604833Z"><title>Download</title></path><path fill="#4df884" d="M0,337.4633252604833L2.842340733686487,336.964175037175C5.684681467372974,336.46502481386665,11.369362934745949,335.46672436725004,17.054044402118922,335.1710617081556C22.738725869491898,334.8753990490611,28.42340733686487,335.2823741774889,34.108088804237845,335.63193621708336C39.79277027161081,335.98149825667775,45.47745173898378,336.2736472074389,51.16992044124357,338.30915343923056C56.86238914350336,340.34465967102227,62.56264508064995,344.1235231838445,68.25511378290975,344.88056305608893C73.94758248516952,345.63760292833337,79.63226395254252,343.37281916,85.31694541991548,339.90065666277775C91.00162688728847,336.42849416555555,96.68630835466143,331.74895293944445,102.37098982203442,328.9123507012778C108.05567128940739,326.0757484631111,113.74035275678035,325.0820852128889,119.43282145904014,323.9216559953889C125.12529016129992,322.7612267778889,130.8255460984465,321.4340315931111,136.5180148007063,318.1432098910723C142.21048350296607,314.8523881890334,147.89516497033904,309.5979399697334,153.57984643771204,303.5633048904362C159.26452790508503,297.5286698111389,164.949209372458,290.71384787184445,170.63389083983097,283.59594669493885C176.31857230720394,276.4780455180333,182.00325377457693,269.05706510351666,187.69572247683672,262.68075088809167C193.38819117909648,256.30443667266667,199.0884471162431,250.97278865633334,204.78091581850288,243.9710289475278C210.47338452076266,236.96926923872226,216.15806598813563,228.29739783744446,221.8427474555086,218.39639017023333C227.52742892288157,208.49538250302226,233.21211039025457,197.3652385698778,238.8967918576275,187.13351076523057C244.5814733250005,176.90178296058335,250.26615479237344,167.56847128443331,255.95829902651295,159.5158404283111C261.6504432606525,151.46320957218884,267.3500502615585,144.69125953609444,273.042194495698,137.67929550246666C278.73433872983753,130.66733146883888,284.4190201972105,123.41535343767778,290.10370166458347,119.18280472575555C295.78838313195644,114.95025601383331,301.4730645993294,113.73713662114996,307.1577460667024,109.63561528412497C312.84242753407534,105.53409394709996,318.5271090014483,98.54417066573332,324.2195777037081,92.31959709272222C329.91204640596794,86.09502351971109,335.61230234311455,80.63579965505551,341.30509551349456,71.99950385617495C346.99788868387463,63.36320805729442,352.6832190874882,51.549840324188914,358.36822502298145,45.96811781992505C364.0532309584748,40.38639531566119,369.7379124258477,41.03631804023896,375.42259389322066,41.903216479425055C381.10727536059363,42.77011491861115,386.79195682796654,43.85398907240557,392.4844255302264,46.09915472709167C398.1768942324862,48.34432038177777,403.8771501696328,51.75077753735555,409.56961887189254,49.476076250980555C415.2620875741524,47.20137496460557,420.94676904152533,39.24551523627779,426.6314505088983,33.5569004575778C432.31613197627127,27.8682856788778,438.0008134436442,24.446915849805595,443.6854949110172,24.860437423980326C449.37017637839017,25.27395899815505,455.05485784576314,29.522371975576704,460.74732654802284,34.429983093424745C466.4397952502827,39.33759421127278,472.14005118742926,44.90440346954722,477.8325198896891,51.332749466061365C483.5249885919489,57.761095462575526,489.2096700593218,65.0509781973294,494.89435152669483,71.51229625322023C500.5790329940678,77.97361430911106,506.26371446144077,83.60636768613881,511.9483959288137,85.9713891971666C517.6330773961868,88.33641070819438,523.3177588635598,87.43370035322219,529.0102275658195,88.94770879089081C534.7026962680793,90.46171722855945,540.4029522052259,94.3924444588689,546.0954209074856,98.94529636243777C551.7878896097454,103.49814826600665,557.4725710771185,108.67312484283497,563.1572525444914,114.83636604225912C568.8419340118644,120.9996072416833,574.5266154792374,128.15111306370332,580.21097247849,137.33780869669775C585.8953294777427,146.52450432969223,591.5793620088751,157.74638977366112,597.2715062430146,165.7006149789375C602.9636504771541,173.6548401842139,608.6639064143008,178.34140515079778,614.3566995846808,183.37753686742778C620.0494927550609,188.41366858405777,625.7348231586744,193.79936705073388,631.4198290941677,197.62879611243417C637.104835029661,201.45822517413444,642.789516497034,203.7313848308589,648.4741979644069,207.19922575358805C654.1588794317798,210.6670666763172,659.8435608991527,215.32958886505108,665.5360296014126,219.76993177804192C671.2284983036724,224.21027469103274,676.928754240819,228.42843832828055,682.6212229430788,233.09386026596053C688.3136916453386,237.75928220364054,693.9983731127114,242.87196244175277,699.6830545800844,247.89090054881248C705.3677360474575,252.90983865587222,711.0524175148306,257.83503463187947,716.7370989822035,265.3790290832139C722.4217804495765,272.92302353454835,728.1064619169493,283.08581646121,733.7989306192093,292.69562757293835C739.491399321469,302.3054386846667,745.1916552586157,311.3622679814617,750.8841239608754,320.51043441532505C756.5765926631351,329.65860084918836,762.261274130508,338.89810442012,767.945955597881,346.86121691629336C773.6306370652541,354.8243294124666,779.315318532627,361.51105083388165,782.1576592663135,364.85441154458914L785,368.1977722552967L785,375.3522711394866L782.1576592663135,372.07698293198024C779.315318532627,368.80169472447386,773.6306370652541,362.2511183094611,767.945955597881,354.2133081336112C762.261274130508,346.17549795776114,756.5765926631351,336.6504540210739,750.8841239608754,327.39150509378055C745.1916552586157,318.1325561664872,739.491399321469,309.13970224858775,733.7989306192093,299.5971238020444C728.1064619169493,290.05454535550103,722.4217804495765,279.96224238031385,716.7370989822035,272.46184923994946C711.0524175148306,264.961456099585,705.3677360474575,260.05297279404334,699.6830545800844,255.13859276321693C693.9983731127114,250.22421273239055,688.3136916453386,245.30393597627946,682.6212229430788,240.79215449023C676.928754240819,236.28037300418055,671.2284983036724,232.17708678819272,665.5360296014126,227.99643075544023C659.8435608991527,223.81577472268773,654.1588794317798,219.55774887317057,648.4741979644069,216.4463809040186C642.789516497034,213.33501293486665,637.104835029661,211.37030284608,631.4198290941677,207.9320448128797C625.7348231586744,204.49378677967945,620.0494927550609,199.58198080206557,614.3566995846808,193.90959660005888C608.6639064143008,188.2372123980522,602.9636504771541,181.80424997165278,597.2715062430146,174.26116181654254C591.5793620088751,166.71807366143227,585.8953294777427,158.0648597776112,580.21097247849,150.05687115252172C574.5266154792374,142.04888252743226,568.8419340118644,134.68611916107443,563.1572525444914,129.2991245714408C557.4725710771185,123.91212998180718,551.7878896097454,120.50090416889772,546.0954209074856,116.93221272919273C540.4029522052259,113.36352128948774,534.7026962680793,109.63736422298722,529.0102275658195,107.19964281445026C523.3177588635598,104.76192140591331,517.6330773961868,103.61263565533996,511.9483959288137,99.65840292552275C506.26371446144077,95.70417019570554,500.5790329940678,88.94499048664447,494.89435152669483,82.16141352630753C489.2096700593218,75.37783656597058,483.5249885919489,68.56986235435777,477.8325198896891,62.12828190526026C472.14005118742926,55.68670145616275,466.4397952502827,49.611514769580545,460.74732654802295,45.070163442634176C455.05485784576314,40.528812115687806,449.37017637839017,37.521296148377274,443.6854949110172,38.578739921646985C438.0008134436442,39.6361836949167,432.31613197627127,44.75858720876666,426.6314505088983,50.2055704240222C420.94676904152533,55.652553639277734,415.2620875741524,61.42411655593884,409.56961887189254,62.0963469668694C403.8771501696328,62.768577377799964,398.1768942324862,58.341475282999966,392.4844255302264,55.52708742192497C386.79195682796654,52.71269956084999,381.10727536059363,51.511025933500015,375.42259389322066,50.6984111052028C369.7379124258477,49.88579627690558,364.0532309584748,49.462240247661136,358.36822502298145,55.07437252253613C352.6832190874882,60.686504797411125,346.99788868387463,72.33432537640556,341.30509551349456,80.53565164650831C335.61230234311455,88.73697791661108,329.91204640596794,93.49180987782218,324.2195777037081,99.11088518411107C318.5271090014483,104.72996049039996,312.84242753407534,111.21327914176663,307.1577460667024,115.51007005756942C301.4730645993294,119.80686097337222,295.78838313195644,121.91712415361114,290.10370166458347,126.21284368808891C284.4190201972105,130.5085632225667,278.73433872983753,136.98973911128334,273.042194495698,142.69103449035555C267.3500502615585,148.39232986942775,261.6504432606525,153.31374473885552,255.95829902651295,160.44110801164442C250.26615479237344,167.56847128443331,244.5814733250005,176.90178296058335,238.8967918576275,187.13351076523057C233.21211039025457,197.3652385698778,227.52742892288157,208.49538250302226,221.84274745550863,218.39639017023333C216.15806598813563,228.29739783744446,210.47338452076266,236.96926923872226,204.78091581850288,243.9710289475278C199.0884471162431,250.97278865633334,193.38819117909648,256.30443667266667,187.69572247683672,262.6807508880916C182.00325377457693,269.05706510351666,176.31857230720394,276.4780455180333,170.63389083983097,283.5959466949389C164.949209372458,290.71384787184445,159.26452790508503,297.5286698111389,153.57984643771204,303.5633048904362C147.89516497033904,309.5979399697334,142.21048350296607,314.8523881890334,136.5180148007063,318.1432098910722C130.8255460984465,321.4340315931111,125.12529016129992,322.7612267778889,119.43282145904014,323.9216559953889C113.74035275678035,325.0820852128889,108.05567128940739,326.0757484631111,102.3709898220344,328.9123507012778C96.68630835466143,331.74895293944445,91.00162688728847,336.42849416555555,85.31694541991548,339.90065666277775C79.63226395254252,343.37281916,73.94758248516952,345.63760292833337,68.25511378290975,344.88056305608893C62.56264508064995,344.1235231838445,56.86238914350336,340.34465967102227,51.16992044124357,338.30915343923056C45.47745173898378,336.2736472074389,39.79277027161081,335.98149825667775,34.108088804237845,335.6319362170833C28.42340733686487,335.2823741774889,22.738725869491898,334.8753990490611,17.054044402118922,335.1710617081556C11.369362934745949,335.46672436725004,5.684681467372974,336.46502481386665,2.842340733686487,336.964175037175L0,337.4633252604833Z"><title>Other</title></path><path fill="#dedd32" d="M0,337.4633252604833L2.842340733686487,336.964175037175C5.684681467372974,336.46502481386665,11.369362934745949,335.46672436725004,17.054044402118922,335.1710617081556C22.738725869491898,334.8753990490611,28.42340733686487,335.2823741774889,34.108088804237845,335.63193621708336C39.79277027161081,335.98149825667775,45.47745173898378,336.2736472074389,51.16992044124357,338.30915343923056C56.86238914350336,340.34465967102227,62.56264508064995,344.1235231838445,68.25511378290975,344.88056305608893C73.94758248516952,345.63760292833337,79.63226395254252,343.37281916,85.31694541991548,339.90065666277775C91.00162688728847,336.42849416555555,96.68630835466143,331.74895293944445,102.37098982203442,328.9123507012778C108.05567128940739,326.0757484631111,113.74035275678035,325.0820852128889,119.43282145904014,323.9216559953889C125.12529016129992,322.7612267778889,130.8255460984465,321.4340315931111,136.5180148007063,318.1432098910723C142.21048350296607,314.8523881890334,147.89516497033904,309.5979399697334,153.57984643771204,303.5633048904362C159.26452790508503,297.5286698111389,164.949209372458,290.71384787184445,170.63389083983097,283.59594669493885C176.31857230720394,276.4780455180333,182.00325377457693,269.05706510351666,187.69572247683672,262.68075088809167C193.38819117909648,256.30443667266667,199.0884471162431,250.97278865633334,204.78091581850288,243.9710289475278C210.47338452076266,236.96926923872226,216.15806598813563,228.29739783744446,221.8427474555086,218.39639017023333C227.52742892288157,208.49538250302226,233.21211039025457,197.3652385698778,238.8967918576275,187.13351076523057C244.5814733250005,176.90178296058335,250.26615479237344,167.56847128443331,255.95829902651295,159.5158404283111C261.6504432606525,151.46320957218884,267.3500502615585,144.69125953609444,273.042194495698,137.67929550246666C278.73433872983753,130.66733146883888,284.4190201972105,123.41535343767778,290.10370166458347,119.18280472575555C295.78838313195644,114.95025601383331,301.4730645993294,113.73713662114996,307.1577460667024,109.63561528412497C312.84242753407534,105.53409394709996,318.5271090014483,98.54417066573332,324.2195777037081,92.31959709272222C329.91204640596794,86.09502351971109,335.61230234311455,80.63579965505551,341.30509551349456,71.99950385617495C346.99788868387463,63.36320805729442,352.6832190874882,51.549840324188914,358.36822502298145,45.96811781992505C364.0532309584748,40.38639531566119,369.7379124258477,41.03631804023896,375.42259389322066,41.903216479425055C381.10727536059363,42.77011491861115,386.79195682796654,43.85398907240557,392.4844255302264,46.09915472709167C398.1768942324862,48.34432038177777,403.8771501696328,51.75077753735555,409.56961887189254,49.476076250980555C415.2620875741524,47.20137496460557,420.94676904152533,39.24551523627779,426.6314505088983,33.5569004575778C432.31613197627127,27.8682856788778,438.0008134436442,24.446915849805595,443.6854949110172,24.860437423980326C449.37017637839017,25.27395899815505,455.05485784576314,29.522371975576704,460.74732654802284,34.429983093424745C466.4397952502827,39.33759421127278,472.14005118742926,44.90440346954722,477.8325198896891,51.332749466061365C483.5249885919489,57.761095462575526,489.2096700593218,65.0509781973294,494.89435152669483,71.51229625322023C500.5790329940678,77.97361430911106,506.26371446144077,83.60636768613881,511.9483959288137,85.93507300076605C517.6330773961868,88.26377831539328,523.3177588635598,87.28843556761997,529.0102275658195,87.93905437550525C534.7026962680793,88.58967318339056,540.4029522052259,90.86625354693444,546.0954209074856,94.27675607957055C551.7878896097454,97.68725861220663,557.4725710771185,102.23168331393497,563.1572525444914,107.9624207793036C568.8419340118644,113.6931582446722,574.5266154792374,120.61020847368111,580.21097247849,129.49141551145334C585.8953294777427,138.37262254922555,591.5793620088751,149.2179863957611,597.2715062430146,156.79189071382083C602.9636504771541,164.36579503188054,608.6639064143008,168.66823982146443,614.3566995846808,173.08387037670556C620.0494927550609,177.49950093194664,625.7348231586744,182.028317252845,631.4198290941677,184.6450738838786C637.104835029661,187.26183051491225,642.789516497034,187.96652745608114,648.4741979644069,189.06656373797694C654.1588794317798,190.1666000198728,659.8435608991527,191.66197564249555,665.5360296014126,192.78322401293084C671.2284983036724,193.90447238336606,676.928754240819,194.65159350161386,682.6212229430788,196.11466349318275C688.3136916453386,197.57773348475166,693.9983731127114,199.7567523496417,699.6830545800844,201.20450863464586C705.3677360474575,202.65226491965004,711.0524175148306,203.36875862476836,716.7370989822035,202.17486731506946C722.4217804495765,200.98097600537054,728.1064619169493,197.87669968085444,733.7989306192093,194.28993690597167C739.491399321469,190.70317413108887,745.1916552586157,186.63392490583942,750.8841239608754,183.02714304379165C756.5765926631351,179.42036118174386,762.261274130508,176.27604668289771,767.945955597881,172.8709112025155C773.6306370652541,169.46577572213332,779.315318532627,165.799819260215,782.1576592663135,163.96684102925585L785,162.13386279829672L785,368.1977722552967L782.1576592663135,364.85441154458914C779.315318532627,361.51105083388165,773.6306370652541,354.8243294124666,767.945955597881,346.86121691629336C762.261274130508,338.89810442012,756.5765926631351,329.65860084918836,750.8841239608754,320.51043441532505C745.1916552586157,311.3622679814617,739.491399321469,302.3054386846667,733.7989306192093,292.69562757293835C728.1064619169493,283.08581646121,722.4217804495765,272.92302353454835,716.7370989822035,265.3790290832139C711.0524175148306,257.83503463187947,705.3677360474575,252.90983865587222,699.6830545800844,247.8909005488125C693.9983731127114,242.87196244175277,688.3136916453386,237.75928220364054,682.6212229430788,233.09386026596056C676.928754240819,228.42843832828055,671.2284983036724,224.21027469103274,665.5360296014126,219.76993177804192C659.8435608991527,215.32958886505108,654.1588794317798,210.6670666763172,648.4741979644069,207.19922575358805C642.789516497034,203.7313848308589,637.104835029661,201.45822517413444,631.4198290941677,197.62879611243417C625.7348231586744,193.79936705073388,620.0494927550609,188.41366858405777,614.3566995846808,183.37753686742778C608.6639064143008,178.34140515079778,602.9636504771541,173.6548401842139,597.2715062430146,165.7006149789375C591.5793620088751,157.74638977366112,585.8953294777427,146.52450432969223,580.21097247849,137.33780869669775C574.5266154792374,128.15111306370332,568.8419340118644,120.9996072416833,563.1572525444914,114.83636604225914C557.4725710771185,108.67312484283497,551.7878896097454,103.49814826600665,546.0954209074856,98.94529636243777C540.4029522052259,94.3924444588689,534.7026962680793,90.46171722855945,529.0102275658195,88.94770879089083C523.3177588635598,87.43370035322219,517.6330773961868,88.33641070819438,511.9483959288137,85.9713891971666C506.26371446144077,83.60636768613881,500.5790329940678,77.97361430911106,494.89435152669483,71.51229625322023C489.2096700593218,65.0509781973294,483.5249885919489,57.761095462575526,477.8325198896891,51.332749466061365C472.14005118742926,44.90440346954722,466.4397952502827,39.33759421127278,460.74732654802295,34.429983093424745C455.05485784576314,29.522371975576704,449.37017637839017,25.27395899815505,443.6854949110172,24.860437423980326C438.0008134436442,24.446915849805595,432.31613197627127,27.8682856788778,426.6314505088983,33.5569004575778C420.94676904152533,39.24551523627779,415.2620875741524,47.20137496460557,409.56961887189254,49.47607625098056C403.8771501696328,51.75077753735555,398.1768942324862,48.34432038177777,392.4844255302264,46.099154727091666C386.79195682796654,43.85398907240557,381.10727536059363,42.77011491861115,375.42259389322066,41.90321647942506C369.7379124258477,41.03631804023896,364.0532309584748,40.38639531566119,358.36822502298145,45.968117819925055C352.6832190874882,51.549840324188914,346.99788868387463,63.36320805729442,341.30509551349456,71.99950385617497C335.61230234311455,80.63579965505551,329.91204640596794,86.09502351971109,324.2195777037081,92.31959709272219C318.5271090014483,98.54417066573332,312.84242753407534,105.53409394709996,307.1577460667024,109.63561528412497C301.4730645993294,113.73713662114996,295.78838313195644,114.95025601383331,290.10370166458347,119.18280472575555C284.4190201972105,123.41535343767778,278.73433872983753,130.66733146883888,273.042194495698,137.67929550246666C267.3500502615585,144.69125953609444,261.6504432606525,151.46320957218884,255.95829902651295,159.51584042831107C250.26615479237344,167.56847128443331,244.5814733250005,176.90178296058335,238.8967918576275,187.13351076523057C233.21211039025457,197.3652385698778,227.52742892288157,208.49538250302226,221.84274745550863,218.39639017023333C216.15806598813563,228.29739783744446,210.47338452076266,236.96926923872226,204.78091581850288,243.9710289475278C199.0884471162431,250.97278865633334,193.38819117909648,256.30443667266667,187.69572247683672,262.6807508880916C182.00325377457693,269.05706510351666,176.31857230720394,276.4780455180333,170.63389083983097,283.5959466949389C164.949209372458,290.71384787184445,159.26452790508503,297.5286698111389,153.57984643771204,303.5633048904362C147.89516497033904,309.5979399697334,142.21048350296607,314.8523881890334,136.5180148007063,318.1432098910722C130.8255460984465,321.4340315931111,125.12529016129992,322.7612267778889,119.43282145904014,323.9216559953889C113.74035275678035,325.0820852128889,108.05567128940739,326.0757484631111,102.3709898220344,328.9123507012778C96.68630835466143,331.74895293944445,91.00162688728847,336.42849416555555,85.31694541991548,339.90065666277775C79.63226395254252,343.37281916,73.94758248516952,345.63760292833337,68.25511378290975,344.88056305608893C62.56264508064995,344.1235231838445,56.86238914350336,340.34465967102227,51.16992044124357,338.30915343923056C45.47745173898378,336.2736472074389,39.79277027161081,335.98149825667775,34.108088804237845,335.6319362170833C28.42340733686487,335.2823741774889,22.738725869491898,334.8753990490611,17.054044402118922,335.1710617081556C11.369362934745949,335.46672436725004,5.684681467372974,336.46502481386665,2.842340733686487,336.964175037175L0,337.4633252604833Z"><title>Streaming</title></path><path fill="#900c00" d="M0,144.53058019715004L2.842340733686487,144.92839694995283C5.684681467372974,145.32621370275558,11.369362934745949,146.12184720836115,17.054044402118922,146.63039563760003C22.738725869491898,147.13894406683892,28.42340733686487,147.36040741971115,34.108088804237845,145.62796153597228C39.79277027161081,143.8955156522334,45.47745173898378,140.20916053188338,51.16992044124357,133.56126449145282C56.86238914350336,126.91336845102224,62.56264508064995,117.30393149051112,68.25511378290975,109.71735405275558C73.94758248516952,102.13077661500002,79.63226395254252,96.56705870000003,85.31694541991548,100.11755110000003C91.00162688728847,103.66804350000002,96.68630835466143,116.332746215,102.37098982203442,125.61905727816668C108.05567128940739,134.90536834133331,113.74035275678035,140.81328775266664,119.43282145904014,144.2480502182222C125.12529016129992,147.68281268377777,130.8255460984465,148.64441820355555,136.5180148007063,152.16515272735C142.21048350296607,155.68588725114446,147.89516497033904,161.76575077895555,153.57984643771204,164.599882775825C159.26452790508503,167.43401477269444,164.949209372458,167.02241523862224,170.63389083983097,164.97538716466116C176.31857230720394,162.92835909070004,182.00325377457693,159.24590247685003,187.69572247683672,157.9893971595917C193.38819117909648,156.73289184233337,199.0884471162431,157.90233782166672,204.78091581850288,157.59302040513893C210.47338452076266,157.28370298861114,216.15806598813563,155.49562217622227,221.8427474555086,151.3023963836778C227.52742892288157,147.1091705911334,233.21211039025457,140.51079981843338,238.8967918576275,135.27654098717505C244.5814733250005,130.0422821559167,250.26615479237344,126.17213526610003,255.95829902651295,124.14031613347777C261.6504432606525,122.10849700085555,267.3500502615585,121.91500562542775,273.042194495698,119.51581547974445C278.73433872983753,117.11662533406111,284.4190201972105,112.51173641812223,290.10370166458347,110.29775650689446C295.78838313195644,108.08377659566668,301.4730645993294,108.26070568915002,307.1577460667024,104.96906912028055C312.84242753407534,101.67743255141109,318.5271090014483,94.91723032018888,324.2195777037081,88.94851011445C329.91204640596794,82.9797899087111,335.61230234311455,77.80255172845555,341.30509551349456,69.2963970109639C346.99788868387463,60.79024229347224,352.6832190874882,48.95517103874448,358.36822502298145,43.330252637408385C364.0532309584748,37.705334236072275,369.7379124258477,38.29056868812782,375.42259389322066,39.05934897820281C381.10727536059363,39.8281292682778,386.79195682796654,40.78045539637223,392.4844255302264,43.06722437579722C398.1768942324862,45.353993355222194,403.8771501696328,48.97520518597772,409.56961887189254,46.870542873408276C415.2620875741524,44.76588056083883,420.94676904152533,36.9353441049444,426.6314505088983,31.31725956220552C432.31613197627127,25.69917501946664,438.0008134436442,22.29354238988331,443.6854949110172,22.75942844460249C449.37017637839017,23.225314499321673,455.05485784576314,27.562719238343366,460.74732654802284,32.496505754002534C466.4397952502827,37.4302922696617,472.14005118742926,42.96046056195834,477.8325198896891,49.44967919835028C483.5249885919489,55.93889783474223,489.2096700593218,63.38716681522948,494.89435152669483,69.94515622686474C500.5790329940678,76.50314563850002,506.26371446144077,82.17085548128331,511.9483959288137,84.54414688399942C517.6330773961868,86.91743828671552,523.3177588635598,85.99631124936441,529.0102275658195,86.7408697174775C534.7026962680793,87.48542818559055,540.4029522052259,89.89567215916777,546.0954209074856,93.38624242274831C551.7878896097454,96.87681268632885,557.4725710771185,101.44770923991273,563.1572525444914,107.18891919147411C568.8419340118644,112.93012914303551,574.5266154792374,119.84165249257444,580.21097247849,128.57389027378C585.8953294777427,137.30612805498558,591.5793620088751,147.85908026785776,597.2715062430146,155.2547465163664C602.9636504771541,162.650412764875,608.6639064143008,166.88879304902,614.3566995846808,171.16381878245224C620.0494927550609,175.43884451588443,625.7348231586744,179.7505156986039,631.4198290941677,182.12644901241583C637.104835029661,184.50238232622777,642.789516497034,184.9425777711322,648.4741979644069,185.74191282692695C654.1588794317798,186.54124788272165,659.8435608991527,187.69972254940663,665.5360296014126,188.4569333472136C671.2284983036724,189.21414414502055,676.928754240819,189.57009107394944,682.6212229430788,190.70250592664445C688.3136916453386,191.83492077933943,693.9983731127114,193.74380355580055,699.6830545800844,194.68110323692915C705.3677360474575,195.61840291805777,711.0524175148306,195.5841195038539,716.7370989822035,193.94482933188613C722.4217804495765,192.30553915991837,728.1064619169493,189.0612422301867,733.7989306192093,185.2965697819989C739.491399321469,181.53189733381112,745.1916552586157,177.24684936716721,750.8841239608754,173.451844579195C756.5765926631351,169.65683979122278,762.261274130508,166.35187818192222,767.945955597881,162.5857250452128C773.6306370652541,158.81957190850332,779.315318532627,154.592227244385,782.1576592663135,152.4785549123258L785,150.36488258026662L785,162.13386279829672L782.1576592663135,163.96684102925587C779.315318532627,165.799819260215,773.6306370652541,169.46577572213332,767.945955597881,172.87091120251554C762.261274130508,176.27604668289771,756.5765926631351,179.42036118174386,750.8841239608754,183.02714304379165C745.1916552586157,186.63392490583942,739.491399321469,190.70317413108887,733.7989306192093,194.28993690597167C728.1064619169493,197.87669968085444,722.4217804495765,200.98097600537054,716.7370989822035,202.17486731506946C711.0524175148306,203.36875862476836,705.3677360474575,202.65226491965004,699.6830545800844,201.20450863464586C693.9983731127114,199.7567523496417,688.3136916453386,197.57773348475166,682.6212229430788,196.11466349318275C676.928754240819,194.65159350161386,671.2284983036724,193.90447238336606,665.5360296014126,192.7832240129308C659.8435608991527,191.66197564249555,654.1588794317798,190.1666000198728,648.4741979644069,189.06656373797696C642.789516497034,187.96652745608114,637.104835029661,187.26183051491225,631.4198290941677,184.6450738838786C625.7348231586744,182.028317252845,620.0494927550609,177.49950093194664,614.3566995846808,173.0838703767055C608.6639064143008,168.66823982146443,602.9636504771541,164.36579503188054,597.2715062430146,156.79189071382083C591.5793620088751,149.2179863957611,585.8953294777427,138.37262254922555,580.21097247849,129.49141551145334C574.5266154792374,120.61020847368111,568.8419340118644,113.6931582446722,563.1572525444914,107.9624207793036C557.4725710771185,102.23168331393497,551.7878896097454,97.68725861220663,546.0954209074856,94.27675607957053C540.4029522052259,90.86625354693444,534.7026962680793,88.58967318339056,529.0102275658195,87.93905437550525C523.3177588635598,87.28843556761997,517.6330773961868,88.26377831539328,511.9483959288137,85.93507300076605C506.26371446144077,83.60636768613881,500.5790329940678,77.97361430911106,494.89435152669483,71.51229625322023C489.2096700593218,65.0509781973294,483.5249885919489,57.761095462575526,477.8325198896891,51.332749466061365C472.14005118742926,44.90440346954722,466.4397952502827,39.33759421127278,460.74732654802295,34.429983093424745C455.05485784576314,29.522371975576704,449.37017637839017,25.27395899815505,443.6854949110172,24.860437423980326C438.0008134436442,24.446915849805595,432.31613197627127,27.8682856788778,426.6314505088983,33.5569004575778C420.94676904152533,39.24551523627779,415.2620875741524,47.20137496460557,409.56961887189254,49.47607625098056C403.8771501696328,51.75077753735555,398.1768942324862,48.34432038177777,392.4844255302264,46.099154727091666C386.79195682796654,43.85398907240557,381.10727536059363,42.77011491861115,375.42259389322066,41.90321647942506C369.7379124258477,41.03631804023896,364.0532309584748,40.38639531566119,358.36822502298145,45.968117819925055C352.6832190874882,51.549840324188914,346.99788868387463,63.36320805729442,341.30509551349456,71.99950385617497C335.61230234311455,80.63579965505551,329.91204640596794,86.09502351971109,324.2195777037081,92.31959709272219C318.5271090014483,98.54417066573332,312.84242753407534,105.53409394709996,307.1577460667024,109.63561528412497C301.4730645993294,113.73713662114996,295.78838313195644,114.95025601383331,290.10370166458347,119.18280472575555C284.4190201972105,123.41535343767778,278.73433872983753,130.66733146883888,273.042194495698,137.67929550246666C267.3500502615585,144.69125953609444,261.6504432606525,151.46320957218884,255.95829902651295,159.51584042831107C250.26615479237344,167.56847128443331,244.5814733250005,176.90178296058335,238.8967918576275,187.13351076523057C233.21211039025457,197.3652385698778,227.52742892288157,208.49538250302226,221.84274745550863,218.39639017023333C216.15806598813563,228.29739783744446,210.47338452076266,236.96926923872226,204.78091581850288,243.9710289475278C199.0884471162431,250.97278865633334,193.38819117909648,256.30443667266667,187.69572247683672,262.6807508880916C182.00325377457693,269.05706510351666,176.31857230720394,276.4780455180333,170.63389083983097,283.5959466949389C164.949209372458,290.71384787184445,159.26452790508503,297.5286698111389,153.57984643771204,303.5633048904362C147.89516497033904,309.5979399697334,142.21048350296607,314.8523881890334,136.5180148007063,318.1432098910722C130.8255460984465,321.4340315931111,125.12529016129992,322.7612267778889,119.43282145904014,323.9216559953889C113.74035275678035,325.0820852128889,108.05567128940739,326.0757484631111,102.3709898220344,328.9123507012778C96.68630835466143,331.74895293944445,91.00162688728847,336.42849416555555,85.31694541991548,339.90065666277775C79.63226395254252,343.37281916,73.94758248516952,345.63760292833337,68.25511378290975,344.88056305608893C62.56264508064995,344.1235231838445,56.86238914350336,340.34465967102227,51.16992044124357,338.30915343923056C45.47745173898378,336.2736472074389,39.79277027161081,335.98149825667775,34.108088804237845,335.6319362170833C28.42340733686487,335.2823741774889,22.738725869491898,334.8753990490611,17.054044402118922,335.1710617081556C11.369362934745949,335.46672436725004,5.684681467372974,336.46502481386665,2.842340733686487,336.964175037175L0,337.4633252604833Z"><title>Vinyl</title></path></g><g id="xAxis" transform="translate(0,560)" fill="none" font-size="10" font-family="sans-serif" text-anchor="middle"><path class="domain" stroke="currentColor" d="M0.5,0.5H785.5"/><g class="tick" opacity="1" transform="translate(34.608088804237845,0)"><line stroke="currentColor" y2="6"/><text fill="currentColor" y="9" dy="0.71em">1975</text></g><g class="tick" opacity="1" transform="translate(119.92503422415332,0)"><line stroke="currentColor" y2="6"/><text fill="currentColor" y="9" dy="0.71em">1980</text></g><g class="tick" opacity="1" transform="translate(205.2887030533897,0)"><line stroke="currentColor" y2="6"/><text fill="currentColor" y="9" dy="0.71em">1985</text></g><g class="tick" opacity="1" transform="translate(290.60370166458347,0)"><line stroke="currentColor" y2="6"/><text fill="currentColor" y="9" dy="0.71em">1990</text></g><g class="tick" opacity="1" transform="translate(375.92259389322066,0)"><line stroke="currentColor" y2="6"/><text fill="currentColor" y="9" dy="0.71em">1995</text></g><g class="tick" opacity="1" transform="translate(461.2395393131361,0)"><line stroke="currentColor" y2="6"/><text fill="currentColor" y="9" dy="0.71em">2000</text></g><g class="tick" opacity="1" transform="translate(546.6032081423724,0)"><line stroke="currentColor" y2="6"/><text fill="currentColor" y="9" dy="0.71em">2005</text></g><g class="tick" opacity="1" transform="translate(631.920153562288,0)"><line stroke="currentColor" y2="6"/><text fill="currentColor" y="9" dy="0.71em">2010</text></g><g class="tick" opacity="1" transform="translate(717.2370989822035,0)"><line stroke="currentColor" y2="6"/><text fill="currentColor" y="9" dy="0.71em">2015</text></g></g><text y="556" x="785" text-anchor="end" style="font-family: Arial, sans-serif; font-size: 12px; fill: rgb(123, 123, 123); font-weight: bold;">Year</text><text x="4" text-anchor="start" dominant-baseline="hanging" style="font-family: Arial, sans-serif; font-size: 12px; fill: rgb(123, 123, 123); font-weight: bold;">Revenues in millions (Adjusted for inflation)</text><g id="labels"><text x="255.95083625974644" y="350.9057377722167" text-anchor="middle" alignment-baseline="middle" style="font-family: Arial, sans-serif; font-size: 10px; fill: black; font-weight: bold;">Tape</text><text x="443.6854949110172" y="267.94759857156663" text-anchor="middle" alignment-baseline="middle" style="font-family: Arial, sans-serif; font-size: 10px; fill: black; font-weight: bold;">Disc</text><text x="665.5282423665258" y="267.2577421538383" text-anchor="middle" alignment-baseline="middle" style="font-family: Arial, sans-serif; font-size: 10px; fill: black; font-weight: bold;">Download</text><text x="529.0024403309327" y="96.22109857736837" text-anchor="middle" alignment-baseline="middle" style="font-family: Arial, sans-serif; font-size: 10px; fill: black; font-weight: bold;">Other</text><text x="785" y="265.1658175267967" text-anchor="end" alignment-baseline="middle" style="font-family: Arial, sans-serif; font-size: 10px; fill: black; font-weight: bold;">Streaming</text><text x="85.31694541991548" y="216.0556880883333" text-anchor="middle" alignment-baseline="middle" style="font-family: Arial, sans-serif; font-size: 10px; fill: black; font-weight: bold;">Vinyl</text></g></g><text x="4" y="4" style="font-family: Arial, sans-serif; font-size: 12px; fill: black; font-weight: bold; dominant-baseline: hanging;"/></g></g></svg>