<svg xmlns="http://www.w3.org/2000/svg" width="826" height="595"><rect width="826" height="595" x="0" y="0" fill="#ffffff" id="background"/><g transform="translate(33,39)" id="viz"><g id="nodes"><g transform="translate(378,262)"><path id="p_901" d="M-4.7944922186618874e-14,261A261,261,0,1,1,4.7944922186618874e-14,-261A261,261,0,1,1,-4.7944922186618874e-14,261Z" fill="none" stroke="#ccc"/><text fill="black" text-anchor="middle" font-family="'Arial', sans-serif" font-size="8" dominant-baseline="middle"><textPath href="#p_901" startOffset="50%"/></text></g><g transform="translate(275.979773016269,220.41527307356355)" id="Social"><path id="p_641.0988440961386" d="M-2.658165645793316e-14,144.70379800630596A144.70379800630596,144.70379800630596,0,1,1,2.658165645793316e-14,-144.70379800630596A144.70379800630596,144.70379800630596,0,1,1,-2.658165645793316e-14,144.70379800630596Z" fill="none" stroke="#ccc"/><text fill="black" text-anchor="middle" font-family="'Arial', sans-serif" font-size="8" dominant-baseline="middle"><textPath href="#p_641.0988440961386" startOffset="50%">Social</textPath></text></g><g transform="translate(483.4156448346693,220.41527307356355)" id="Juegos"><path id="p_760.4367322125867" d="M-1.0398319395143447e-14,56.60581430435378A56.60581430435378,56.60581430435378,0,1,1,1.0398319395143447e-14,-56.60581430435378A56.60581430435378,56.60581430435378,0,1,1,-1.0398319395143447e-14,56.60581430435378Z" fill="none" stroke="#ccc"/><text fill="black" text-anchor="middle" font-family="'Arial', sans-serif" font-size="8" dominant-baseline="middle"><textPath href="#p_760.4367322125867" startOffset="50%">Juegos</textPath></text></g><g transform="translate(446.3212202587714,326.96588514128644)" id="Navegación"><path id="p_823.3780313115276" d="M-9.201553812571298e-15,50.09092591146976A50.09092591146976,50.09092591146976,0,1,1,9.201553812571298e-15,-50.09092591146976A50.09092591146976,50.09092591146976,0,1,1,-9.201553812571298e-15,50.09092591146976Z" fill="none" stroke="#ccc"/><text fill="black" text-anchor="middle" font-family="'Arial', sans-serif" font-size="8" dominant-baseline="middle"><textPath href="#p_823.3780313115276" startOffset="50%">Navegación</textPath></text></g><g transform="translate(454.24568109412076,92.20988706336504)" id="Streaming"><path id="p_615.2054618795325" d="M-1.2629150593263783e-14,68.74989372204672A68.74989372204672,68.74989372204672,0,1,1,1.2629150593263783e-14,-68.74989372204672A68.74989372204672,68.74989372204672,0,1,1,-1.2629150593263783e-14,68.74989372204672Z" fill="none" stroke="#ccc"/><text fill="black" text-anchor="middle" font-family="'Arial', sans-serif" font-size="8" dominant-baseline="middle"><textPath href="#p_615.2054618795325" startOffset="50%">Streaming</textPath></text></g><g transform="translate(362.43263186407887,435.34277769677954)" id="Otros"><path id="p_878.6087480473926" d="M-1.4848843386289296e-14,80.83333848653419A80.83333848653419,80.83333848653419,0,1,1,1.4848843386289296e-14,-80.83333848653419A80.83333848653419,80.83333848653419,0,1,1,-1.4848843386289296e-14,80.83333848653419Z" fill="none" stroke="#ccc"/><text fill="black" text-anchor="middle" font-family="'Arial', sans-serif" font-size="8" dominant-baseline="middle"><textPath href="#p_878.6087480473926" startOffset="50%">Otros</textPath></text></g><g transform="translate(226.67546030436358,188.87578841019084)" id="whatsapp"><path id="p_495.5996974813934" d="M-1.4704661483853033e-14,80.04844876683896A80.04844876683896,80.04844876683896,0,1,1,1.4704661483853033e-14,-80.04844876683896A80.04844876683896,80.04844876683896,0,1,1,-1.4704661483853033e-14,80.04844876683896Z" fill="#98ea95" stroke="none"/></g><g transform="translate(360.86888451509344,188.87578841019084)" id="instagram"><path id="p_597.7633888614346" d="M-8.820895015555877e-15,48.01871593615034A48.01871593615034,48.01871593615034,0,1,1,8.820895015555877e-15,-48.01871593615034A48.01871593615034,48.01871593615034,0,1,1,-8.820895015555877e-15,48.01871593615034Z" fill="#98ea95" stroke="none"/></g><g transform="translate(323.4183019988046,290.3793957619706)" id="tiktok"><path id="p_667.8448127682368" d="M-9.928293959555506e-15,54.04711500746159A54.04711500746159,54.04711500746159,0,1,1,9.928293959555506e-15,-54.04711500746159A54.04711500746159,54.04711500746159,0,1,1,-9.928293959555506e-15,54.04711500746159Z" fill="#98ea95" stroke="none"/></g><g transform="translate(483.4156448346693,220.41527307356355)" id="juegos"><path id="p_754.3104727048461" d="M-9.272943780608369e-15,50.479554796613215A50.479554796613215,50.479554796613215,0,1,1,9.272943780608369e-15,-50.479554796613215A50.479554796613215,50.479554796613215,0,1,1,-9.272943780608369e-15,50.479554796613215Z" fill="#a6a15d" stroke="none"/></g><g transform="translate(446.3212202587714,326.96588514128644)" id="chrome"><path id="p_817.251771803787" d="M-8.07617819803622e-15,43.9646664037292A43.9646664037292,43.9646664037292,0,1,1,8.07617819803622e-15,-43.9646664037292A43.9646664037292,43.9646664037292,0,1,1,-8.07617819803622e-15,43.9646664037292Z" fill="#b9727b" stroke="none"/></g><g transform="translate(454.24568109412076,92.20988706336504)" id="netflix_hbo"><path id="p_609.079202371792" d="M-1.1503774978728704e-14,62.62363421430615A62.62363421430615,62.62363421430615,0,1,1,1.1503774978728704e-14,-62.62363421430615A62.62363421430615,62.62363421430615,0,1,1,-1.1503774978728704e-14,62.62363421430615Z" fill="#949494" stroke="none"/></g><g transform="translate(362.43263186407887,435.34277769677954)" id="otros"><path id="p_872.482488539652" d="M-1.3723467771754218e-14,74.70707897879362A74.70707897879362,74.70707897879362,0,1,1,1.3723467771754218e-14,-74.70707897879362A74.70707897879362,74.70707897879362,0,1,1,-1.3723467771754218e-14,74.70707897879362Z" fill="#675bb6" stroke="none"/></g></g><g id="labels"><g transform="translate(226.67546030436358,188.87578841019084)"><text text-anchor="middle" dominant-baseline="text-before-edge" transform="translate(0,-5.555555820465088)" style="opacity: 1;"><tspan x="0" y="0" dy="0" style="font-family: Arial, sans-serif; font-size: 10px; fill: black; font-weight: bold;">whatsapp</tspan></text></g><g transform="translate(360.86888451509344,188.87578841019084)"><text text-anchor="middle" dominant-baseline="text-before-edge" transform="translate(0,-5.555555820465088)" style="opacity: 1;"><tspan x="0" y="0" dy="0" style="font-family: Arial, sans-serif; font-size: 10px; fill: black; font-weight: bold;">instagram</tspan></text></g><g transform="translate(323.4183019988046,290.3793957619706)"><text text-anchor="middle" dominant-baseline="text-before-edge" transform="translate(0,-5.555555820465088)" style="opacity: 1;"><tspan x="0" y="0" dy="0" style="font-family: Arial, sans-serif; font-size: 10px; fill: black; font-weight: bold;">tiktok</tspan></text></g><g transform="translate(483.4156448346693,220.41527307356355)"><text text-anchor="middle" dominant-baseline="text-before-edge" transform="translate(0,-5.555555820465088)" style="opacity: 1;"><tspan x="0" y="0" dy="0" style="font-family: Arial, sans-serif; font-size: 10px; fill: black; font-weight: bold;">juegos</tspan></text></g><g transform="translate(446.3212202587714,326.96588514128644)"><text text-anchor="middle" dominant-baseline="text-before-edge" transform="translate(0,-5.555555820465088)" style="opacity: 1;"><tspan x="0" y="0" dy="0" style="font-family: Arial, sans-serif; font-size: 10px; fill: black; font-weight: bold;">chrome</tspan></text></g><g transform="translate(454.24568109412076,92.20988706336504)"><text text-anchor="middle" dominant-baseline="text-before-edge" transform="translate(0,-5.555555820465088)" style="opacity: 1;"><tspan x="0" y="0" dy="0" style="font-family: Arial, sans-serif; font-size: 10px; fill: black; font-weight: bold;">netflix_hbo</tspan></text></g><g transform="translate(362.43263186407887,435.34277769677954)"><text text-anchor="middle" dominant-baseline="text-before-edge" transform="translate(0,-5.555555820465088)" style="opacity: 1;"><tspan x="0" y="0" dy="0" style="font-family: Arial, sans-serif; font-size: 10px; fill: black; font-weight: bold;">otros</tspan></text></g></g></g></svg>