<svg xmlns="http://www.w3.org/2000/svg" width="826" height="600"><rect width="826" height="600" x="0" y="0" fill="#FFFFFF" id="background"/><g transform="translate(27,27)" id="viz"><g id="nodes"><g transform="translate(389,273.5)"><path id="p_935" d="M-5.005743791514806e-14,272.5A272.5,272.5,0,1,1,5.005743791514806e-14,-272.5A272.5,272.5,0,1,1,-5.005743791514806e-14,272.5Z" fill="none" stroke="#ccc"/></g><g transform="translate(308.277655469848,326.2255691887219)" id="social"><path id="p_808.6564949544202" d="M-3.199143675432851e-14,174.15327029585018A174.15327029585018,174.15327029585018,0,1,1,3.199143675432851e-14,-174.15327029585018A174.15327029585018,174.15327029585018,0,1,1,-3.199143675432851e-14,174.15327029585018Z" fill="none" stroke="#ccc"/></g><g transform="translate(555.7824543878637,326.2255691887219)" id="streaming"><path id="p_953.4290169471897" d="M-1.3119823638485179e-14,71.42099337060401A71.42099337060401,71.42099337060401,0,1,1,1.3119823638485179e-14,-71.42099337060401A71.42099337060401,71.42099337060401,0,1,1,-1.3119823638485179e-14,71.42099337060401Z" fill="none" stroke="#ccc"/></g><g transform="translate(508.0536517349731,449.0708809925525)" id="juegos_cat"><path id="p_1015.5645411434374" d="M-1.0735255387303617e-14,58.44000841591181A58.44000841591181,58.44000841591181,0,1,1,1.0735255387303617e-14,-58.44000841591181A58.44000841591181,58.44000841591181,0,1,1,-1.0735255387303617e-14,58.44000841591181Z" fill="none" stroke="#ccc"/></g><g transform="translate(506.26954339844224,208.73942496339734)" id="navegacion"><path id="p_769.1506648129309" d="M-9.945668288885499e-15,54.14169645109137A54.14169645109137,54.14169645109137,0,1,1,9.945668288885499e-15,-54.14169645109137A54.14169645109137,54.14169645109137,0,1,1,-9.945668288885499e-15,54.14169645109137Z" fill="none" stroke="#ccc"/></g><g transform="translate(425.56339279201603,92.2360886486859)" id="otros_cat"><path id="p_603.4541353955202" d="M-1.5734504669676357e-14,85.65465395481827A85.65465395481827,85.65465395481827,0,1,1,1.5734504669676357e-14,-85.65465395481827A85.65465395481827,85.65465395481827,0,1,1,-1.5734504669676357e-14,85.65465395481827Z" fill="none" stroke="#ccc"/></g><g transform="translate(243.6722076563591,305.6578258102692)" id="whatsapp"><path id="p_653.7523558656878" d="M-1.9182069432831192e-14,104.42232239905958A104.42232239905958,104.42232239905958,0,1,1,1.9182069432831192e-14,-104.42232239905958A104.42232239905958,104.42232239905958,0,1,1,-1.9182069432831192e-14,104.42232239905958Z" fill="#2e7ad5" stroke="none"/></g><g transform="translate(414.2741973192549,305.6578258102692)" id="instagram"><path id="p_784.1811551417986" d="M-1.1802374080024175e-14,64.2491320122746A64.2491320122746,64.2491320122746,0,1,1,1.1802374080024175e-14,-64.2491320122746A64.2491320122746,64.2491320122746,0,1,1,-1.1802374080024175e-14,64.2491320122746Z" fill="#2e7ad5" stroke="none"/></g><g transform="translate(363.6850983129402,422.4992549534466)" id="tiktok"><path id="p_847.3278044944053" d="M-1.1231869775282273e-14,61.1434512280185A61.1434512280185,61.1434512280185,0,1,1,1.1231869775282273e-14,-61.1434512280185A61.1434512280185,61.1434512280185,0,1,1,-1.1231869775282273e-14,61.1434512280185Z" fill="#2e7ad5" stroke="none"/></g><g transform="translate(555.7824543878637,326.2255691887219)" id="netflix_hbo"><path id="p_951.498481695628" d="M-1.2765190066015276e-14,69.49045811904243A69.49045811904243,69.49045811904243,0,1,1,1.2765190066015276e-14,-69.49045811904243A69.49045811904243,69.49045811904243,0,1,1,-1.2765190066015276e-14,69.49045811904243Z" fill="#837c87" stroke="none"/></g><g transform="translate(508.0536517349731,449.0708809925525)" id="juegos"><path id="p_1013.6340058918757" d="M-1.0380621814833716e-14,56.50947316435024A56.50947316435024,56.50947316435024,0,1,1,1.0380621814833716e-14,-56.50947316435024A56.50947316435024,56.50947316435024,0,1,1,-1.0380621814833716e-14,56.50947316435024Z" fill="#072b20" stroke="none"/></g><g transform="translate(506.26954339844224,208.73942496339734)" id="chrome"><path id="p_767.2201295613694" d="M-9.591034716415596e-15,52.21116119952979A52.21116119952979,52.21116119952979,0,1,1,9.591034716415596e-15,-52.21116119952979A52.21116119952979,52.21116119952979,0,1,1,-9.591034716415596e-15,52.21116119952979Z" fill="#ad035c" stroke="none"/></g><g transform="translate(425.56339279201603,92.2360886486859)" id="otros"><path id="p_601.5236001439587" d="M-1.5379871097206455e-14,83.7241187032567A83.7241187032567,83.7241187032567,0,1,1,1.5379871097206455e-14,-83.7241187032567A83.7241187032567,83.7241187032567,0,1,1,-1.5379871097206455e-14,83.7241187032567Z" fill="#6e1196" stroke="none"/></g></g><g id="labels"><g transform="translate(243.6722076563591,305.6578258102692)"><text text-anchor="middle" dominant-baseline="text-before-edge" transform="translate(0,-5.5)" style="stroke-width: 2px; paint-order: stroke; stroke: white; stroke-linecap: round; stroke-linejoin: round;"><tspan x="0" y="0" dy="0" style="font-family: Arial, sans-serif; font-size: 10px; fill: black; font-weight: normal; font-style: italic;">social</tspan></text></g><g transform="translate(414.2741973192549,305.6578258102692)"><text text-anchor="middle" dominant-baseline="text-before-edge" transform="translate(0,-5.5)" style="stroke-width: 2px; paint-order: stroke; stroke: white; stroke-linecap: round; stroke-linejoin: round;"><tspan x="0" y="0" dy="0" style="font-family: Arial, sans-serif; font-size: 10px; fill: black; font-weight: normal; font-style: italic;">social</tspan></text></g><g transform="translate(363.6850983129402,422.4992549534466)"><text text-anchor="middle" dominant-baseline="text-before-edge" transform="translate(0,-5.5)" style="stroke-width: 2px; paint-order: stroke; stroke: white; stroke-linecap: round; stroke-linejoin: round;"><tspan x="0" y="0" dy="0" style="font-family: Arial, sans-serif; font-size: 10px; fill: black; font-weight: normal; font-style: italic;">social</tspan></text></g><g transform="translate(555.7824543878637,326.2255691887219)"><text text-anchor="middle" dominant-baseline="text-before-edge" transform="translate(0,-5.5)" style="stroke-width: 2px; paint-order: stroke; stroke: white; stroke-linecap: round; stroke-linejoin: round;"><tspan x="0" y="0" dy="0" style="font-family: Arial, sans-serif; font-size: 10px; fill: black; font-weight: normal; font-style: italic;">streaming</tspan></text></g><g transform="translate(508.0536517349731,449.0708809925525)"><text text-anchor="middle" dominant-baseline="text-before-edge" transform="translate(0,-5.5)" style="stroke-width: 2px; paint-order: stroke; stroke: white; stroke-linecap: round; stroke-linejoin: round;"><tspan x="0" y="0" dy="0" style="font-family: Arial, sans-serif; font-size: 10px; fill: black; font-weight: normal; font-style: italic;">juegos_cat</tspan></text></g><g transform="translate(506.26954339844224,208.73942496339734)"><text text-anchor="middle" dominant-baseline="text-before-edge" transform="translate(0,-5.5)" style="stroke-width: 2px; paint-order: stroke; stroke: white; stroke-linecap: round; stroke-linejoin: round;"><tspan x="0" y="0" dy="0" style="font-family: Arial, sans-serif; font-size: 10px; fill: black; font-weight: normal; font-style: italic;">navegacion</tspan></text></g><g transform="translate(425.56339279201603,92.2360886486859)"><text text-anchor="middle" dominant-baseline="text-before-edge" transform="translate(0,-5.5)" style="stroke-width: 2px; paint-order: stroke; stroke: white; stroke-linecap: round; stroke-linejoin: round;"><tspan x="0" y="0" dy="0" style="font-family: Arial, sans-serif; font-size: 10px; fill: black; font-weight: normal; font-style: italic;">otros_cat</tspan></text></g></g></g></svg>